<svg width="243" height="39" viewBox="0 0 243 39" fill="none" xmlns="http://www.w3.org/2000/svg">
<path d="M90.1416 30.9043C89.3154 30.9043 88.542 30.7725 87.8213 30.5088C87.1182 30.2451 86.4941 29.876 85.9492 29.4014C85.4219 28.9268 85 28.3643 84.6836 27.7139C84.3672 27.0811 84.2002 26.3867 84.1826 25.6309C84.165 24.6465 84.3232 23.7676 84.6572 22.9941C84.9736 22.2207 85.3955 21.5352 85.9229 20.9375C86.4678 20.3398 87.083 19.8389 87.7686 19.4346C88.4541 19.0127 89.1572 18.6699 89.8779 18.4062C89.4912 18.1953 89.1221 17.9404 88.7705 17.6416C88.4365 17.3428 88.1377 17.0088 87.874 16.6396C87.6104 16.2705 87.3994 15.8838 87.2412 15.4795C87.083 15.0752 87.0039 14.6709 87.0039 14.2666C86.9688 13.0361 87.2148 11.9199 87.7422 10.918C88.2871 9.91602 88.9814 9.06348 89.8252 8.36035C90.6689 7.63965 91.6094 7.08594 92.6465 6.69922C93.7012 6.3125 94.7295 6.11914 95.7314 6.11914C96.3994 6.11914 96.9707 6.2334 97.4453 6.46191C97.9199 6.67285 98.3066 6.94531 98.6055 7.2793C98.9043 7.5957 99.124 7.94727 99.2646 8.33398C99.4229 8.70312 99.5107 9.0459 99.5283 9.3623C99.5459 9.94238 99.4668 10.5313 99.291 11.1289C99.1328 11.7266 98.9219 12.2715 98.6582 12.7637C98.4121 13.2383 98.1309 13.6338 97.8145 13.9502C97.498 14.249 97.1904 14.3984 96.8916 14.3984C96.6631 14.3984 96.4258 14.3633 96.1797 14.293C95.9688 14.2402 95.7227 14.1523 95.4414 14.0293C95.1602 13.9062 94.8789 13.7217 94.5977 13.4756C95.0547 13.2998 95.459 13.0537 95.8105 12.7373C96.1621 12.4033 96.4521 12.0342 96.6807 11.6299C96.9268 11.2256 97.1025 10.8125 97.208 10.3906C97.3311 9.95117 97.3926 9.53809 97.3926 9.15137C97.375 8.58887 97.2432 8.1582 96.9971 7.85938C96.751 7.54297 96.3555 7.38477 95.8105 7.38477C95.0723 7.38477 94.334 7.56934 93.5957 7.93848C92.8574 8.29004 92.1982 8.79102 91.6182 9.44141C91.0557 10.0742 90.6074 10.8389 90.2734 11.7354C89.957 12.6143 89.8516 13.5723 89.957 14.6094C90.0449 15.4004 90.2822 16.0684 90.6689 16.6133C91.0732 17.1582 91.4512 17.5801 91.8027 17.8789C92.084 17.8438 92.3477 17.8174 92.5938 17.7998C92.8398 17.7646 93.0684 17.7471 93.2793 17.7471C93.5781 17.7471 93.877 17.7998 94.1758 17.9053C94.4746 18.0107 94.624 18.1602 94.624 18.3535C94.624 18.4941 94.5889 18.6523 94.5186 18.8281C94.4658 19.0039 94.3691 19.1709 94.2285 19.3291C94.0879 19.4873 93.9209 19.6191 93.7275 19.7246C93.5342 19.8301 93.3057 19.8828 93.042 19.8828C92.8311 19.8828 92.5762 19.8301 92.2773 19.7246C91.9785 19.6191 91.6797 19.4873 91.3809 19.3291C90.7129 19.4697 90.1064 19.7246 89.5615 20.0938C89.0166 20.4453 88.5508 20.8672 88.1641 21.3594C87.7949 21.8516 87.5049 22.3877 87.2939 22.9678C87.083 23.5479 86.9863 24.1104 87.0039 24.6553C87.0215 25.165 87.1006 25.6748 87.2412 26.1846C87.3818 26.7119 87.6016 27.1777 87.9004 27.582C88.1992 27.9863 88.5859 28.3115 89.0605 28.5576C89.5527 28.8213 90.1416 28.9531 90.8271 28.9531C91.3369 28.9531 91.8203 28.8389 92.2773 28.6104C92.752 28.3994 93.1914 28.127 93.5957 27.793C94 27.459 94.3691 27.0898 94.7031 26.6855C95.0371 26.2812 95.3271 25.8857 95.5732 25.499C95.8193 25.1123 96.0215 24.7607 96.1797 24.4443C96.3555 24.1279 96.4785 23.8994 96.5488 23.7588C96.6016 23.6533 96.6719 23.5742 96.7598 23.5215C96.8652 23.4688 96.9619 23.46 97.0498 23.4951C97.1553 23.5127 97.2344 23.5742 97.2871 23.6797C97.3398 23.7852 97.3398 23.9434 97.2871 24.1543C97.1465 24.7871 96.8828 25.4902 96.4961 26.2637C96.1094 27.0547 95.6084 27.793 94.9932 28.4785C94.3955 29.1641 93.6836 29.7354 92.8574 30.1924C92.0488 30.667 91.1436 30.9043 90.1416 30.9043ZM98.7373 25.5781C99.5107 22.3262 100.126 19.7158 100.583 17.7471C101.058 15.7783 101.418 14.2754 101.664 13.2383C101.945 12.0078 102.139 11.1553 102.244 10.6807C102.297 10.3467 102.341 10.0215 102.376 9.70508C102.411 9.42383 102.429 9.13379 102.429 8.83496C102.429 8.53613 102.402 8.26367 102.35 8.01758C102.49 7.92969 102.64 7.85938 102.798 7.80664C102.974 7.75391 103.141 7.70996 103.299 7.6748C103.492 7.62207 103.686 7.57813 103.879 7.54297C104.072 7.50781 104.248 7.49023 104.406 7.49023C104.547 7.49023 104.679 7.50781 104.802 7.54297C104.925 7.56055 105.004 7.61328 105.039 7.70117C105.145 7.78906 105.188 7.96484 105.171 8.22852C105.171 8.49219 105.153 8.76465 105.118 9.0459C105.048 9.37988 104.969 9.74023 104.881 10.127C104.67 10.8828 104.38 11.9727 104.011 13.3965C103.694 14.6094 103.264 16.2617 102.719 18.3535C102.191 20.4453 101.523 23.082 100.715 26.2637C100.627 26.3516 100.521 26.4131 100.398 26.4482C100.275 26.4834 100.161 26.501 100.056 26.501C99.9326 26.501 99.8008 26.4922 99.6602 26.4746C99.5371 26.4395 99.4141 26.3867 99.291 26.3164C99.1855 26.2461 99.0801 26.1494 98.9746 26.0264C98.8691 25.9209 98.79 25.7715 98.7373 25.5781ZM116.983 20.5156C116.456 21.2891 115.858 22.0449 115.19 22.7832C114.522 23.5039 113.811 24.1543 113.055 24.7344C112.316 25.2969 111.552 25.7539 110.761 26.1055C109.987 26.457 109.231 26.6328 108.493 26.6328C108.106 26.6328 107.685 26.5361 107.228 26.3428C106.788 26.167 106.384 25.8857 106.015 25.499C105.646 25.1123 105.347 24.6113 105.118 23.9961C104.907 23.3809 104.846 22.6338 104.934 21.7549C105.004 21.0342 105.224 20.2783 105.593 19.4873C105.979 18.6787 106.445 17.9404 106.99 17.2725C107.553 16.6045 108.177 16.0508 108.862 15.6113C109.565 15.1719 110.269 14.9521 110.972 14.9521C111.64 14.9521 112.123 15.1191 112.422 15.4531C112.721 15.7871 112.853 16.2002 112.817 16.6924C112.765 17.2373 112.606 17.7383 112.343 18.1953C112.097 18.6523 111.798 19.0654 111.446 19.4346C111.095 19.8037 110.717 20.1377 110.312 20.4365C109.926 20.7354 109.557 21.0078 109.205 21.2539C108.818 21.5176 108.449 21.7725 108.098 22.0186C107.746 22.2471 107.438 22.458 107.175 22.6514C107.192 23.0908 107.271 23.46 107.412 23.7588C107.553 24.0576 107.729 24.3037 107.939 24.4971C108.15 24.6729 108.388 24.8047 108.651 24.8926C108.933 24.9629 109.214 24.998 109.495 24.998C110.093 24.998 110.717 24.8135 111.367 24.4443C112.018 24.0576 112.65 23.6006 113.266 23.0732C113.898 22.5283 114.479 21.9658 115.006 21.3857C115.551 20.8057 115.999 20.3047 116.351 19.8828C116.474 19.7422 116.597 19.6631 116.72 19.6455C116.86 19.6104 116.966 19.6279 117.036 19.6982C117.124 19.751 117.168 19.8564 117.168 20.0146C117.168 20.1553 117.106 20.3223 116.983 20.5156ZM110.233 16.4551C110.022 16.4551 109.768 16.5605 109.469 16.7715C109.188 16.9824 108.906 17.29 108.625 17.6943C108.344 18.0811 108.08 18.5645 107.834 19.1445C107.588 19.707 107.403 20.3574 107.28 21.0957C107.491 20.9375 107.72 20.7793 107.966 20.6211C108.212 20.4453 108.458 20.2607 108.704 20.0674C109.46 19.4873 109.987 18.9775 110.286 18.5381C110.585 18.0986 110.752 17.7207 110.787 17.4043C110.822 17.0703 110.787 16.833 110.682 16.6924C110.576 16.5342 110.427 16.4551 110.233 16.4551ZM119.567 25.1035C120.112 25.1035 120.71 24.8926 121.36 24.4707C122.028 24.0312 122.67 23.5215 123.285 22.9414C123.918 22.3613 124.489 21.7725 124.999 21.1748C125.526 20.5596 125.922 20.0674 126.186 19.6982C126.344 19.4697 126.493 19.3379 126.634 19.3027C126.774 19.25 126.88 19.2676 126.95 19.3555C127.021 19.4434 127.047 19.584 127.029 19.7773C127.012 19.9531 126.933 20.1553 126.792 20.3838C126.669 20.5947 126.458 20.9023 126.159 21.3066C125.878 21.6934 125.535 22.124 125.131 22.5986C124.744 23.0557 124.296 23.5303 123.786 24.0225C123.294 24.4971 122.775 24.9365 122.23 25.3408C121.686 25.7275 121.123 26.0439 120.543 26.29C119.963 26.5537 119.392 26.6855 118.829 26.6855C118.056 26.6855 117.405 26.5361 116.878 26.2373C116.368 25.9561 115.955 25.5869 115.639 25.1299C115.34 24.6729 115.129 24.1719 115.006 23.627C114.883 23.0645 114.821 22.5107 114.821 21.9658C114.821 21.4209 114.944 20.7441 115.19 19.9355C115.437 19.127 115.797 18.3535 116.271 17.6152C116.764 16.8594 117.379 16.2178 118.117 15.6904C118.855 15.1455 119.726 14.873 120.728 14.873C121.29 14.873 121.765 15.0664 122.151 15.4531C122.556 15.8398 122.749 16.3672 122.731 17.0352C122.731 17.3516 122.679 17.668 122.573 17.9844C122.468 18.2832 122.327 18.5557 122.151 18.8018C121.976 19.0303 121.765 19.2148 121.519 19.3555C121.29 19.4961 121.035 19.5664 120.754 19.5664C120.525 19.5664 120.35 19.4873 120.227 19.3291C120.121 19.1533 120.051 18.96 120.016 18.749C119.998 18.5205 119.998 18.3008 120.016 18.0898C120.051 17.8789 120.086 17.7383 120.121 17.668C120.209 17.5449 120.306 17.457 120.411 17.4043C120.517 17.3516 120.64 17.29 120.78 17.2197C120.886 17.167 120.965 17.0879 121.018 16.9824C121.088 16.877 121.123 16.7627 121.123 16.6396C121.123 16.5166 121.088 16.4111 121.018 16.3232C120.947 16.2354 120.833 16.1914 120.675 16.1914C120.517 16.1914 120.227 16.3232 119.805 16.5869C119.4 16.833 118.979 17.2109 118.539 17.7207C118.117 18.2129 117.739 18.8369 117.405 19.5928C117.071 20.3486 116.896 21.2275 116.878 22.2295C116.86 22.8096 116.939 23.2842 117.115 23.6533C117.291 24.0225 117.511 24.3125 117.774 24.5234C118.038 24.7344 118.328 24.8838 118.645 24.9717C118.961 25.0596 119.269 25.1035 119.567 25.1035ZM134.623 19.3291C134.693 19.2236 134.781 19.1621 134.887 19.1445C135.01 19.1094 135.106 19.1182 135.177 19.1709C135.247 19.2236 135.282 19.3115 135.282 19.4346C135.3 19.5576 135.256 19.7246 135.15 19.9355C134.799 20.6035 134.333 21.3242 133.753 22.0977C133.19 22.8711 132.593 23.6006 131.96 24.2861C131.327 24.9541 130.712 25.5078 130.114 25.9473C129.517 26.3867 129.016 26.6064 128.611 26.6064C128.031 26.6064 127.548 26.4922 127.161 26.2637C126.774 26.0352 126.467 25.7539 126.238 25.4199C126.027 25.0859 125.878 24.7256 125.79 24.3389C125.702 23.9346 125.676 23.5654 125.711 23.2314C125.729 22.9502 125.79 22.4492 125.896 21.7285C126.001 20.9902 126.142 20.1465 126.317 19.1973C126.493 18.2305 126.687 17.2021 126.897 16.1123C127.126 15.0049 127.363 13.9414 127.609 12.9219C127.311 12.957 127.012 12.9922 126.713 13.0273C126.414 13.0625 126.142 13.0801 125.896 13.0801C125.333 13.0801 124.806 13.0186 124.313 12.8955C123.804 12.7549 123.426 12.623 123.18 12.5C123.039 12.4297 122.978 12.333 122.995 12.21C123.013 12.0693 123.065 11.9375 123.153 11.8145C123.241 11.6738 123.355 11.5596 123.496 11.4717C123.619 11.3662 123.733 11.3135 123.839 11.3135C124.173 11.3486 124.533 11.3838 124.92 11.4189C125.307 11.4365 125.729 11.4365 126.186 11.4189C126.52 11.4014 126.836 11.375 127.135 11.3398C127.451 11.3047 127.759 11.2607 128.058 11.208C128.286 10.3643 128.506 9.63477 128.717 9.01953C128.945 8.38672 129.147 7.94727 129.323 7.70117C129.376 7.61328 129.49 7.54297 129.666 7.49023C129.859 7.41992 130.062 7.37598 130.272 7.3584C130.483 7.32324 130.686 7.32324 130.879 7.3584C131.072 7.37598 131.213 7.4375 131.301 7.54297C131.389 7.68359 131.424 8.04395 131.406 8.62402C131.389 9.2041 131.292 9.94238 131.116 10.8389C131.854 10.8389 132.505 10.8828 133.067 10.9707C133.647 11.041 134.14 11.1289 134.544 11.2344C134.948 11.3223 135.273 11.4189 135.52 11.5244C135.766 11.6123 135.95 11.6738 136.073 11.709C136.196 11.7441 136.258 11.832 136.258 11.9727C136.275 12.1133 136.249 12.2627 136.179 12.4209C136.126 12.5615 136.029 12.6846 135.889 12.79C135.748 12.8955 135.59 12.9307 135.414 12.8955C135.238 12.8779 135.036 12.8428 134.808 12.79C134.597 12.7373 134.333 12.6934 134.017 12.6582C133.718 12.623 133.357 12.5879 132.936 12.5527C132.514 12.5176 132.021 12.5 131.459 12.5C131.354 12.5 131.23 12.5088 131.09 12.5264C130.967 12.5264 130.835 12.5264 130.694 12.5264C130.624 12.8076 130.554 13.0889 130.483 13.3701C130.431 13.6338 130.352 13.915 130.246 14.2139C130.018 14.917 129.754 15.6816 129.455 16.5078C129.191 17.2285 128.875 18.0547 128.506 18.9863C128.137 19.918 127.724 20.9111 127.267 21.9658C127.161 22.7217 127.17 23.3018 127.293 23.7061C127.434 24.0928 127.601 24.374 127.794 24.5498C128.022 24.7432 128.304 24.8486 128.638 24.8662C128.901 24.9014 129.218 24.8135 129.587 24.6025C129.974 24.374 130.369 24.0752 130.773 23.7061C131.178 23.3369 131.582 22.9326 131.986 22.4932C132.408 22.0537 132.795 21.623 133.146 21.2012C133.498 20.7793 133.806 20.4014 134.069 20.0674C134.333 19.7158 134.518 19.4697 134.623 19.3291ZM138.842 10.4697C138.789 10.6631 138.684 10.8564 138.525 11.0498C138.385 11.2256 138.218 11.375 138.024 11.498C137.849 11.6035 137.664 11.6738 137.471 11.709C137.277 11.7441 137.119 11.709 136.996 11.6035C136.627 11.3223 136.434 11.0234 136.416 10.707C136.398 10.373 136.478 10.0654 136.653 9.78418C136.829 9.48535 137.049 9.23926 137.312 9.0459C137.576 8.83496 137.805 8.71191 137.998 8.67676C138.191 8.6416 138.35 8.68555 138.473 8.80859C138.613 8.91406 138.719 9.06348 138.789 9.25684C138.859 9.43262 138.895 9.63477 138.895 9.86328C138.912 10.0918 138.895 10.2939 138.842 10.4697ZM135.203 16.0859C135.291 15.9805 135.458 15.8926 135.704 15.8223C135.95 15.752 136.205 15.6992 136.469 15.6641C136.732 15.6113 136.97 15.585 137.181 15.585C137.409 15.5674 137.541 15.5674 137.576 15.585C137.594 15.6025 137.55 15.7871 137.444 16.1387C137.339 16.4902 137.207 16.9033 137.049 17.3779C136.891 17.8525 136.724 18.3447 136.548 18.8545C136.372 19.3467 136.24 19.751 136.152 20.0674C136.064 20.3838 135.959 20.7441 135.836 21.1484C135.713 21.5352 135.599 21.9219 135.493 22.3086C135.405 22.6777 135.344 23.0293 135.309 23.3633C135.273 23.6973 135.3 23.9521 135.388 24.1279C135.476 24.3389 135.572 24.4883 135.678 24.5762C135.783 24.6465 135.897 24.6816 136.021 24.6816C136.372 24.6816 136.812 24.4883 137.339 24.1016C137.884 23.7148 138.429 23.2578 138.974 22.7305C139.536 22.1855 140.055 21.6406 140.529 21.0957C141.004 20.5332 141.355 20.085 141.584 19.751C141.725 19.5752 141.865 19.4609 142.006 19.4082C142.164 19.3555 142.287 19.3643 142.375 19.4346C142.48 19.5049 142.533 19.6191 142.533 19.7773C142.551 19.9355 142.498 20.1201 142.375 20.3311C142.094 20.8232 141.681 21.4121 141.136 22.0977C140.591 22.7656 140.011 23.416 139.396 24.0488C138.78 24.6641 138.174 25.1914 137.576 25.6309C136.996 26.0703 136.521 26.2988 136.152 26.3164C135.854 26.334 135.555 26.2812 135.256 26.1582C134.975 26.0527 134.711 25.9033 134.465 25.71C134.236 25.499 134.043 25.2617 133.885 24.998C133.727 24.7168 133.639 24.4268 133.621 24.1279C133.568 23.6885 133.568 23.0908 133.621 22.335C133.674 21.5615 133.771 20.7793 133.911 19.9883C134.052 19.1797 134.228 18.415 134.438 17.6943C134.667 16.9736 134.922 16.4375 135.203 16.0859ZM148.176 21.3066C147.719 21.9746 147.244 22.625 146.752 23.2578C146.277 23.8906 145.812 24.4619 145.354 24.9717C144.915 25.4639 144.502 25.8594 144.115 26.1582C143.746 26.4746 143.447 26.6328 143.219 26.6328C142.674 26.6328 142.226 26.3779 141.874 25.8682C141.54 25.3408 141.276 24.6992 141.083 23.9434C140.907 23.1699 140.793 22.3525 140.74 21.4912C140.705 20.6123 140.714 19.8301 140.767 19.1445C140.837 18.459 140.916 17.9141 141.004 17.5098C141.092 17.0879 141.197 16.7627 141.32 16.5342C141.461 16.3057 141.619 16.1387 141.795 16.0332C141.988 15.9277 142.226 15.8398 142.507 15.7695C142.63 15.7344 142.771 15.708 142.929 15.6904C143.087 15.6729 143.228 15.6816 143.351 15.7168C143.491 15.7344 143.597 15.7871 143.667 15.875C143.737 15.9629 143.746 16.0947 143.693 16.2705C143.658 16.4287 143.597 16.666 143.509 16.9824C143.438 17.2812 143.359 17.624 143.271 18.0107C143.184 18.3975 143.096 18.8018 143.008 19.2236C142.938 19.6455 142.885 20.0498 142.85 20.4365C142.797 21.1045 142.797 21.6934 142.85 22.2031C142.902 22.6953 142.981 23.1172 143.087 23.4688C143.192 23.8027 143.307 24.0576 143.43 24.2334C143.553 24.4092 143.649 24.4971 143.72 24.4971C143.808 24.4971 143.966 24.3828 144.194 24.1543C144.44 23.9082 144.713 23.5918 145.012 23.2051C145.328 22.8184 145.653 22.3701 145.987 21.8604C146.339 21.3506 146.664 20.8232 146.963 20.2783C146.857 19.9971 146.813 19.6631 146.831 19.2764C146.884 18.6787 147.016 18.1426 147.227 17.668C147.438 17.1758 147.675 16.7627 147.938 16.4287C148.22 16.0947 148.501 15.8398 148.782 15.6641C149.081 15.4707 149.345 15.374 149.573 15.374C150.03 15.374 150.312 15.4971 150.417 15.7432C150.54 15.9717 150.584 16.209 150.549 16.4551C150.514 16.8242 150.347 17.334 150.048 17.9844C149.767 18.6172 149.397 19.3115 148.94 20.0674C149.028 20.1025 149.125 20.1377 149.23 20.1729C149.336 20.208 149.459 20.2256 149.6 20.2256C150.197 20.2256 150.733 20.1553 151.208 20.0146C151.7 19.874 152.122 19.707 152.474 19.5137C152.843 19.3203 153.15 19.1182 153.396 18.9072C153.66 18.6787 153.871 18.4941 154.029 18.3535C154.135 18.248 154.24 18.1953 154.346 18.1953C154.451 18.1953 154.539 18.2217 154.609 18.2744C154.68 18.3271 154.715 18.4062 154.715 18.5117C154.715 18.6172 154.662 18.7314 154.557 18.8545C153.924 19.6279 153.15 20.252 152.236 20.7266C151.34 21.2012 150.285 21.4385 149.072 21.4385C148.967 21.4385 148.835 21.4297 148.677 21.4121C148.519 21.3945 148.352 21.3594 148.176 21.3066ZM163.943 20.5156C163.416 21.2891 162.818 22.0449 162.15 22.7832C161.482 23.5039 160.771 24.1543 160.015 24.7344C159.276 25.2969 158.512 25.7539 157.721 26.1055C156.947 26.457 156.191 26.6328 155.453 26.6328C155.066 26.6328 154.645 26.5361 154.188 26.3428C153.748 26.167 153.344 25.8857 152.975 25.499C152.605 25.1123 152.307 24.6113 152.078 23.9961C151.867 23.3809 151.806 22.6338 151.894 21.7549C151.964 21.0342 152.184 20.2783 152.553 19.4873C152.939 18.6787 153.405 17.9404 153.95 17.2725C154.513 16.6045 155.137 16.0508 155.822 15.6113C156.525 15.1719 157.229 14.9521 157.932 14.9521C158.6 14.9521 159.083 15.1191 159.382 15.4531C159.681 15.7871 159.812 16.2002 159.777 16.6924C159.725 17.2373 159.566 17.7383 159.303 18.1953C159.057 18.6523 158.758 19.0654 158.406 19.4346C158.055 19.8037 157.677 20.1377 157.272 20.4365C156.886 20.7354 156.517 21.0078 156.165 21.2539C155.778 21.5176 155.409 21.7725 155.058 22.0186C154.706 22.2471 154.398 22.458 154.135 22.6514C154.152 23.0908 154.231 23.46 154.372 23.7588C154.513 24.0576 154.688 24.3037 154.899 24.4971C155.11 24.6729 155.348 24.8047 155.611 24.8926C155.893 24.9629 156.174 24.998 156.455 24.998C157.053 24.998 157.677 24.8135 158.327 24.4443C158.978 24.0576 159.61 23.6006 160.226 23.0732C160.858 22.5283 161.438 21.9658 161.966 21.3857C162.511 20.8057 162.959 20.3047 163.311 19.8828C163.434 19.7422 163.557 19.6631 163.68 19.6455C163.82 19.6104 163.926 19.6279 163.996 19.6982C164.084 19.751 164.128 19.8564 164.128 20.0146C164.128 20.1553 164.066 20.3223 163.943 20.5156ZM157.193 16.4551C156.982 16.4551 156.728 16.5605 156.429 16.7715C156.147 16.9824 155.866 17.29 155.585 17.6943C155.304 18.0811 155.04 18.5645 154.794 19.1445C154.548 19.707 154.363 20.3574 154.24 21.0957C154.451 20.9375 154.68 20.7793 154.926 20.6211C155.172 20.4453 155.418 20.2607 155.664 20.0674C156.42 19.4873 156.947 18.9775 157.246 18.5381C157.545 18.0986 157.712 17.7207 157.747 17.4043C157.782 17.0703 157.747 16.833 157.642 16.6924C157.536 16.5342 157.387 16.4551 157.193 16.4551ZM171.722 13.8975C171.704 13.8447 171.757 13.7129 171.88 13.502C172.003 13.2734 172.135 13.001 172.275 12.6846C172.434 12.3506 172.583 11.9814 172.724 11.5771C172.882 11.1553 172.987 10.7246 173.04 10.2852C173.11 9.8457 173.11 9.40625 173.04 8.9668C172.97 8.52734 172.785 8.10547 172.486 7.70117C172.311 7.49023 172.047 7.37598 171.695 7.3584C171.361 7.32324 170.975 7.37598 170.535 7.5166C170.113 7.63965 169.665 7.8418 169.19 8.12305C168.733 8.38672 168.312 8.70312 167.925 9.07227C167.538 9.42383 167.204 9.81934 166.923 10.2588C166.659 10.6982 166.51 11.1465 166.475 11.6035C166.439 11.9727 166.448 12.3154 166.501 12.6318C166.571 12.9482 166.659 13.2383 166.765 13.502C166.87 13.7656 166.984 14.0117 167.107 14.2402C167.23 14.4688 167.345 14.6709 167.45 14.8467C167.591 15.0928 167.811 15.3652 168.109 15.6641C168.408 15.9629 168.733 16.3057 169.085 16.6924C169.437 17.0615 169.788 17.4834 170.14 17.958C170.491 18.4326 170.799 18.9688 171.062 19.5664C171.326 20.1641 171.511 20.832 171.616 21.5703C171.722 22.3086 171.713 23.126 171.59 24.0225C171.396 25.3232 171.089 26.4043 170.667 27.2656C170.245 28.1445 169.779 28.8477 169.27 29.375C168.777 29.9023 168.276 30.2803 167.767 30.5088C167.257 30.7549 166.835 30.9131 166.501 30.9834C166.237 31.0361 165.921 31.0801 165.552 31.1152C165.2 31.168 164.822 31.1592 164.418 31.0889C164.031 31.0361 163.636 30.9131 163.231 30.7197C162.827 30.5439 162.467 30.2627 162.15 29.876C161.781 29.4365 161.491 28.9619 161.28 28.4521C161.087 28.0127 160.946 27.5029 160.858 26.9229C160.753 26.3604 160.797 25.7715 160.99 25.1562C161.131 24.998 161.28 24.8574 161.438 24.7344C161.597 24.6113 161.755 24.5059 161.913 24.418C162.089 24.3125 162.273 24.2158 162.467 24.1279C162.695 24.0576 162.924 23.9961 163.152 23.9434C163.346 23.9082 163.548 23.8906 163.759 23.8906C163.987 23.873 164.198 23.8994 164.392 23.9697C164.128 24.2686 163.943 24.5498 163.838 24.8135C163.768 24.9541 163.715 25.0771 163.68 25.1826C163.609 25.5166 163.583 25.9121 163.601 26.3691C163.636 26.8438 163.732 27.292 163.891 27.7139C164.066 28.1533 164.312 28.5225 164.629 28.8213C164.945 29.1377 165.367 29.3047 165.895 29.3223C167.178 29.3574 168.268 28.3555 169.164 26.3164C169.463 25.6836 169.612 25.042 169.612 24.3916C169.63 23.7412 169.551 23.1172 169.375 22.5195C169.217 21.9219 168.997 21.3682 168.716 20.8584C168.452 20.3311 168.18 19.8828 167.898 19.5137C167.617 19.1445 167.274 18.749 166.87 18.3271C166.483 17.8877 166.097 17.4131 165.71 16.9033C165.323 16.3936 164.972 15.8398 164.655 15.2422C164.356 14.6445 164.154 13.9941 164.049 13.291C163.908 12.3066 163.996 11.4102 164.312 10.6016C164.646 9.77539 165.086 9.05469 165.631 8.43945C166.193 7.82422 166.8 7.32324 167.45 6.93652C168.118 6.5498 168.707 6.30371 169.217 6.19824C172.047 5.63574 173.901 6.11035 174.78 7.62207C175.149 8.20215 175.352 8.81738 175.387 9.46777C175.422 10.1182 175.378 10.7246 175.255 11.2871C175.149 11.832 175.009 12.2979 174.833 12.6846C174.675 13.0537 174.569 13.2559 174.517 13.291C174.411 13.3965 174.244 13.5107 174.016 13.6338C173.787 13.7568 173.418 13.8711 172.908 13.9766C172.768 14.0117 172.627 14.0293 172.486 14.0293C172.363 14.0293 172.231 14.0205 172.091 14.0029C171.95 13.9854 171.827 13.9502 171.722 13.8975ZM186.804 20.5156C186.276 21.2891 185.679 22.0449 185.011 22.7832C184.343 23.5039 183.631 24.1543 182.875 24.7344C182.137 25.2969 181.372 25.7539 180.581 26.1055C179.808 26.457 179.052 26.6328 178.313 26.6328C177.927 26.6328 177.505 26.5361 177.048 26.3428C176.608 26.167 176.204 25.8857 175.835 25.499C175.466 25.1123 175.167 24.6113 174.938 23.9961C174.728 23.3809 174.666 22.6338 174.754 21.7549C174.824 21.0342 175.044 20.2783 175.413 19.4873C175.8 18.6787 176.266 17.9404 176.811 17.2725C177.373 16.6045 177.997 16.0508 178.683 15.6113C179.386 15.1719 180.089 14.9521 180.792 14.9521C181.46 14.9521 181.943 15.1191 182.242 15.4531C182.541 15.7871 182.673 16.2002 182.638 16.6924C182.585 17.2373 182.427 17.7383 182.163 18.1953C181.917 18.6523 181.618 19.0654 181.267 19.4346C180.915 19.8037 180.537 20.1377 180.133 20.4365C179.746 20.7354 179.377 21.0078 179.025 21.2539C178.639 21.5176 178.27 21.7725 177.918 22.0186C177.566 22.2471 177.259 22.458 176.995 22.6514C177.013 23.0908 177.092 23.46 177.232 23.7588C177.373 24.0576 177.549 24.3037 177.76 24.4971C177.971 24.6729 178.208 24.8047 178.472 24.8926C178.753 24.9629 179.034 24.998 179.315 24.998C179.913 24.998 180.537 24.8135 181.188 24.4443C181.838 24.0576 182.471 23.6006 183.086 23.0732C183.719 22.5283 184.299 21.9658 184.826 21.3857C185.371 20.8057 185.819 20.3047 186.171 19.8828C186.294 19.7422 186.417 19.6631 186.54 19.6455C186.681 19.6104 186.786 19.6279 186.856 19.6982C186.944 19.751 186.988 19.8564 186.988 20.0146C186.988 20.1553 186.927 20.3223 186.804 20.5156ZM180.054 16.4551C179.843 16.4551 179.588 16.5605 179.289 16.7715C179.008 16.9824 178.727 17.29 178.445 17.6943C178.164 18.0811 177.9 18.5645 177.654 19.1445C177.408 19.707 177.224 20.3574 177.101 21.0957C177.312 20.9375 177.54 20.7793 177.786 20.6211C178.032 20.4453 178.278 20.2607 178.524 20.0674C179.28 19.4873 179.808 18.9775 180.106 18.5381C180.405 18.0986 180.572 17.7207 180.607 17.4043C180.643 17.0703 180.607 16.833 180.502 16.6924C180.396 16.5342 180.247 16.4551 180.054 16.4551ZM184.51 25.5781C185.283 22.3262 185.898 19.7158 186.355 17.7471C186.83 15.7783 187.19 14.2754 187.437 13.2383C187.718 12.0078 187.911 11.1553 188.017 10.6807C188.069 10.3467 188.113 10.0215 188.148 9.70508C188.184 9.42383 188.201 9.13379 188.201 8.83496C188.201 8.53613 188.175 8.26367 188.122 8.01758C188.263 7.92969 188.412 7.85938 188.57 7.80664C188.746 7.75391 188.913 7.70996 189.071 7.6748C189.265 7.62207 189.458 7.57813 189.651 7.54297C189.845 7.50781 190.021 7.49023 190.179 7.49023C190.319 7.49023 190.451 7.50781 190.574 7.54297C190.697 7.56055 190.776 7.61328 190.812 7.70117C190.917 7.78906 190.961 7.96484 190.943 8.22852C190.943 8.49219 190.926 8.76465 190.891 9.0459C190.82 9.37988 190.741 9.74023 190.653 10.127C190.442 10.8828 190.152 11.9727 189.783 13.3965C189.467 14.6094 189.036 16.2617 188.491 18.3535C187.964 20.4453 187.296 23.082 186.487 26.2637C186.399 26.3516 186.294 26.4131 186.171 26.4482C186.048 26.4834 185.934 26.501 185.828 26.501C185.705 26.501 185.573 26.4922 185.433 26.4746C185.31 26.4395 185.187 26.3867 185.063 26.3164C184.958 26.2461 184.853 26.1494 184.747 26.0264C184.642 25.9209 184.562 25.7715 184.51 25.5781ZM202.756 20.5156C202.229 21.2891 201.631 22.0449 200.963 22.7832C200.295 23.5039 199.583 24.1543 198.827 24.7344C198.089 25.2969 197.324 25.7539 196.533 26.1055C195.76 26.457 195.004 26.6328 194.266 26.6328C193.879 26.6328 193.457 26.5361 193 26.3428C192.561 26.167 192.156 25.8857 191.787 25.499C191.418 25.1123 191.119 24.6113 190.891 23.9961C190.68 23.3809 190.618 22.6338 190.706 21.7549C190.776 21.0342 190.996 20.2783 191.365 19.4873C191.752 18.6787 192.218 17.9404 192.763 17.2725C193.325 16.6045 193.949 16.0508 194.635 15.6113C195.338 15.1719 196.041 14.9521 196.744 14.9521C197.412 14.9521 197.896 15.1191 198.194 15.4531C198.493 15.7871 198.625 16.2002 198.59 16.6924C198.537 17.2373 198.379 17.7383 198.115 18.1953C197.869 18.6523 197.57 19.0654 197.219 19.4346C196.867 19.8037 196.489 20.1377 196.085 20.4365C195.698 20.7354 195.329 21.0078 194.978 21.2539C194.591 21.5176 194.222 21.7725 193.87 22.0186C193.519 22.2471 193.211 22.458 192.947 22.6514C192.965 23.0908 193.044 23.46 193.185 23.7588C193.325 24.0576 193.501 24.3037 193.712 24.4971C193.923 24.6729 194.16 24.8047 194.424 24.8926C194.705 24.9629 194.986 24.998 195.268 24.998C195.865 24.998 196.489 24.8135 197.14 24.4443C197.79 24.0576 198.423 23.6006 199.038 23.0732C199.671 22.5283 200.251 21.9658 200.778 21.3857C201.323 20.8057 201.771 20.3047 202.123 19.8828C202.246 19.7422 202.369 19.6631 202.492 19.6455C202.633 19.6104 202.738 19.6279 202.809 19.6982C202.896 19.751 202.94 19.8564 202.94 20.0146C202.94 20.1553 202.879 20.3223 202.756 20.5156ZM196.006 16.4551C195.795 16.4551 195.54 16.5605 195.241 16.7715C194.96 16.9824 194.679 17.29 194.397 17.6943C194.116 18.0811 193.853 18.5645 193.606 19.1445C193.36 19.707 193.176 20.3574 193.053 21.0957C193.264 20.9375 193.492 20.7793 193.738 20.6211C193.984 20.4453 194.23 20.2607 194.477 20.0674C195.232 19.4873 195.76 18.9775 196.059 18.5381C196.357 18.0986 196.524 17.7207 196.56 17.4043C196.595 17.0703 196.56 16.833 196.454 16.6924C196.349 16.5342 196.199 16.4551 196.006 16.4551ZM205.34 25.1035C205.885 25.1035 206.482 24.8926 207.133 24.4707C207.801 24.0312 208.442 23.5215 209.058 22.9414C209.69 22.3613 210.262 21.7725 210.771 21.1748C211.299 20.5596 211.694 20.0674 211.958 19.6982C212.116 19.4697 212.266 19.3379 212.406 19.3027C212.547 19.25 212.652 19.2676 212.723 19.3555C212.793 19.4434 212.819 19.584 212.802 19.7773C212.784 19.9531 212.705 20.1553 212.564 20.3838C212.441 20.5947 212.23 20.9023 211.932 21.3066C211.65 21.6934 211.308 22.124 210.903 22.5986C210.517 23.0557 210.068 23.5303 209.559 24.0225C209.066 24.4971 208.548 24.9365 208.003 25.3408C207.458 25.7275 206.896 26.0439 206.315 26.29C205.735 26.5537 205.164 26.6855 204.602 26.6855C203.828 26.6855 203.178 26.5361 202.65 26.2373C202.141 25.9561 201.728 25.5869 201.411 25.1299C201.112 24.6729 200.901 24.1719 200.778 23.627C200.655 23.0645 200.594 22.5107 200.594 21.9658C200.594 21.4209 200.717 20.7441 200.963 19.9355C201.209 19.127 201.569 18.3535 202.044 17.6152C202.536 16.8594 203.151 16.2178 203.89 15.6904C204.628 15.1455 205.498 14.873 206.5 14.873C207.062 14.873 207.537 15.0664 207.924 15.4531C208.328 15.8398 208.521 16.3672 208.504 17.0352C208.504 17.3516 208.451 17.668 208.346 17.9844C208.24 18.2832 208.1 18.5557 207.924 18.8018C207.748 19.0303 207.537 19.2148 207.291 19.3555C207.062 19.4961 206.808 19.5664 206.526 19.5664C206.298 19.5664 206.122 19.4873 205.999 19.3291C205.894 19.1533 205.823 18.96 205.788 18.749C205.771 18.5205 205.771 18.3008 205.788 18.0898C205.823 17.8789 205.858 17.7383 205.894 17.668C205.981 17.5449 206.078 17.457 206.184 17.4043C206.289 17.3516 206.412 17.29 206.553 17.2197C206.658 17.167 206.737 17.0879 206.79 16.9824C206.86 16.877 206.896 16.7627 206.896 16.6396C206.896 16.5166 206.86 16.4111 206.79 16.3232C206.72 16.2354 206.605 16.1914 206.447 16.1914C206.289 16.1914 205.999 16.3232 205.577 16.5869C205.173 16.833 204.751 17.2109 204.312 17.7207C203.89 18.2129 203.512 18.8369 203.178 19.5928C202.844 20.3486 202.668 21.2275 202.65 22.2295C202.633 22.8096 202.712 23.2842 202.888 23.6533C203.063 24.0225 203.283 24.3125 203.547 24.5234C203.811 24.7344 204.101 24.8838 204.417 24.9717C204.733 25.0596 205.041 25.1035 205.34 25.1035ZM220.396 19.3291C220.466 19.2236 220.554 19.1621 220.659 19.1445C220.782 19.1094 220.879 19.1182 220.949 19.1709C221.02 19.2236 221.055 19.3115 221.055 19.4346C221.072 19.5576 221.028 19.7246 220.923 19.9355C220.571 20.6035 220.105 21.3242 219.525 22.0977C218.963 22.8711 218.365 23.6006 217.732 24.2861C217.1 24.9541 216.484 25.5078 215.887 25.9473C215.289 26.3867 214.788 26.6064 214.384 26.6064C213.804 26.6064 213.32 26.4922 212.934 26.2637C212.547 26.0352 212.239 25.7539 212.011 25.4199C211.8 25.0859 211.65 24.7256 211.562 24.3389C211.475 23.9346 211.448 23.5654 211.483 23.2314C211.501 22.9502 211.562 22.4492 211.668 21.7285C211.773 20.9902 211.914 20.1465 212.09 19.1973C212.266 18.2305 212.459 17.2021 212.67 16.1123C212.898 15.0049 213.136 13.9414 213.382 12.9219C213.083 12.957 212.784 12.9922 212.485 13.0273C212.187 13.0625 211.914 13.0801 211.668 13.0801C211.105 13.0801 210.578 13.0186 210.086 12.8955C209.576 12.7549 209.198 12.623 208.952 12.5C208.812 12.4297 208.75 12.333 208.768 12.21C208.785 12.0693 208.838 11.9375 208.926 11.8145C209.014 11.6738 209.128 11.5596 209.269 11.4717C209.392 11.3662 209.506 11.3135 209.611 11.3135C209.945 11.3486 210.306 11.3838 210.692 11.4189C211.079 11.4365 211.501 11.4365 211.958 11.4189C212.292 11.4014 212.608 11.375 212.907 11.3398C213.224 11.3047 213.531 11.2607 213.83 11.208C214.059 10.3643 214.278 9.63477 214.489 9.01953C214.718 8.38672 214.92 7.94727 215.096 7.70117C215.148 7.61328 215.263 7.54297 215.438 7.49023C215.632 7.41992 215.834 7.37598 216.045 7.3584C216.256 7.32324 216.458 7.32324 216.651 7.3584C216.845 7.37598 216.985 7.4375 217.073 7.54297C217.161 7.68359 217.196 8.04395 217.179 8.62402C217.161 9.2041 217.064 9.94238 216.889 10.8389C217.627 10.8389 218.277 10.8828 218.84 10.9707C219.42 11.041 219.912 11.1289 220.316 11.2344C220.721 11.3223 221.046 11.4189 221.292 11.5244C221.538 11.6123 221.723 11.6738 221.846 11.709C221.969 11.7441 222.03 11.832 222.03 11.9727C222.048 12.1133 222.021 12.2627 221.951 12.4209C221.898 12.5615 221.802 12.6846 221.661 12.79C221.521 12.8955 221.362 12.9307 221.187 12.8955C221.011 12.8779 220.809 12.8428 220.58 12.79C220.369 12.7373 220.105 12.6934 219.789 12.6582C219.49 12.623 219.13 12.5879 218.708 12.5527C218.286 12.5176 217.794 12.5 217.231 12.5C217.126 12.5 217.003 12.5088 216.862 12.5264C216.739 12.5264 216.607 12.5264 216.467 12.5264C216.396 12.8076 216.326 13.0889 216.256 13.3701C216.203 13.6338 216.124 13.915 216.019 14.2139C215.79 14.917 215.526 15.6816 215.228 16.5078C214.964 17.2285 214.647 18.0547 214.278 18.9863C213.909 19.918 213.496 20.9111 213.039 21.9658C212.934 22.7217 212.942 23.3018 213.065 23.7061C213.206 24.0928 213.373 24.374 213.566 24.5498C213.795 24.7432 214.076 24.8486 214.41 24.8662C214.674 24.9014 214.99 24.8135 215.359 24.6025C215.746 24.374 216.142 24.0752 216.546 23.7061C216.95 23.3369 217.354 22.9326 217.759 22.4932C218.181 22.0537 218.567 21.623 218.919 21.2012C219.271 20.7793 219.578 20.4014 219.842 20.0674C220.105 19.7158 220.29 19.4697 220.396 19.3291ZM226.618 21.8076C226.442 22.4756 226.205 23.0996 225.906 23.6797C225.607 24.2598 225.247 24.7607 224.825 25.1826C224.421 25.6045 223.955 25.9297 223.428 26.1582C222.918 26.4043 222.355 26.5273 221.74 26.5273C221.02 26.5273 220.448 26.3691 220.026 26.0527C219.622 25.7539 219.314 25.376 219.104 24.9189C218.91 24.4619 218.796 23.9609 218.761 23.416C218.708 22.8711 218.682 22.3613 218.682 21.8867C218.682 21.5527 218.726 21.1836 218.813 20.7793C218.884 20.375 218.989 19.9619 219.13 19.54C219.271 19.1182 219.446 18.6963 219.657 18.2744C219.886 17.8525 220.149 17.4658 220.448 17.1143C220.554 16.8154 220.712 16.5518 220.923 16.3232C221.151 16.0947 221.406 15.9102 221.688 15.7695C221.986 15.6113 222.303 15.4971 222.637 15.4268C222.971 15.3389 223.296 15.2949 223.612 15.2949C223.665 15.2949 223.709 15.3037 223.744 15.3213C223.797 15.3389 223.85 15.3564 223.902 15.374C224.131 15.3916 224.412 15.4795 224.746 15.6377C225.098 15.7959 225.432 16.0332 225.748 16.3496C226.082 16.666 226.363 17.0703 226.592 17.5625C226.82 18.0371 226.935 18.6172 226.935 19.3027C226.935 19.4434 226.926 19.6191 226.908 19.8301C226.891 20.0234 226.873 20.1904 226.855 20.3311C227.26 20.1729 227.682 19.9795 228.121 19.751C228.561 19.5225 228.982 19.2852 229.387 19.0391C229.809 18.7754 230.195 18.5117 230.547 18.248C230.898 17.9844 231.18 17.7471 231.391 17.5361C231.566 17.3779 231.716 17.29 231.839 17.2725C231.962 17.2549 232.05 17.29 232.103 17.3779C232.155 17.4658 232.164 17.5889 232.129 17.7471C232.094 17.9053 231.997 18.0811 231.839 18.2744C231.751 18.3799 231.522 18.5908 231.153 18.9072C230.802 19.2236 230.38 19.5664 229.888 19.9355C229.396 20.3047 228.859 20.665 228.279 21.0166C227.699 21.3682 227.146 21.6318 226.618 21.8076ZM222.162 17.7998C222.109 17.958 222.083 18.125 222.083 18.3008C222.083 18.582 222.101 18.8809 222.136 19.1973C222.171 19.4961 222.259 19.7686 222.399 20.0146C222.54 20.2607 222.76 20.4717 223.059 20.6475C223.375 20.8057 223.806 20.8848 224.351 20.8848C224.438 20.8848 224.526 20.8848 224.614 20.8848C224.702 20.8672 224.79 20.8496 224.878 20.832C224.931 20.6035 224.975 20.4014 225.01 20.2256C225.062 20.0322 225.089 19.8652 225.089 19.7246C225.124 19.3906 225.124 19.0479 225.089 18.6963C225.054 18.3447 224.983 18.0283 224.878 17.7471C224.79 17.4482 224.667 17.2109 224.509 17.0352C224.368 16.8418 224.192 16.7451 223.981 16.7451C223.647 16.7451 223.322 16.8418 223.006 17.0352C222.707 17.2109 222.426 17.4658 222.162 17.7998ZM220.475 22.4404C220.475 22.7568 220.492 23.0732 220.527 23.3896C220.562 23.6885 220.633 23.9609 220.738 24.207C220.844 24.4355 220.984 24.6289 221.16 24.7871C221.336 24.9277 221.564 24.998 221.846 24.998C222.162 24.998 222.452 24.9277 222.716 24.7871C222.979 24.6289 223.217 24.4355 223.428 24.207C223.639 23.9609 223.823 23.6885 223.981 23.3896C224.157 23.0732 224.307 22.748 224.43 22.4141C224.307 22.4316 224.184 22.4492 224.061 22.4668C223.955 22.4668 223.832 22.4668 223.691 22.4668C223.023 22.4668 222.443 22.2734 221.951 21.8867C221.477 21.4824 221.107 20.9727 220.844 20.3574C220.738 20.7266 220.65 21.0869 220.58 21.4385C220.51 21.79 220.475 22.124 220.475 22.4404ZM228.438 25.8682C228.314 26.0615 228.183 26.1846 228.042 26.2373C227.884 26.3076 227.752 26.3164 227.646 26.2637C227.523 26.2285 227.444 26.1406 227.409 26C227.374 25.8594 227.409 25.6836 227.515 25.4727C227.567 25.3672 227.69 25.1299 227.884 24.7607C228.06 24.3916 228.279 23.9521 228.543 23.4424C228.789 22.915 229.062 22.3525 229.36 21.7549C229.659 21.1396 229.94 20.5596 230.204 20.0146C230.485 19.4697 230.74 18.9863 230.969 18.5645C231.197 18.125 231.364 17.8086 231.47 17.6152C231.276 17.4395 231.145 17.3164 231.074 17.2461C231.004 17.1582 230.951 16.9824 230.916 16.7188C230.881 16.4902 230.934 16.1914 231.074 15.8223C231.215 15.4531 231.399 15.1016 231.628 14.7676C231.856 14.416 232.111 14.1172 232.393 13.8711C232.674 13.625 232.946 13.502 233.21 13.502C233.702 13.502 234.045 13.6602 234.238 13.9766C234.449 14.293 234.572 14.6182 234.607 14.9521C234.643 15.1807 234.625 15.4707 234.555 15.8223C234.484 16.1738 234.353 16.4902 234.159 16.7715C234.212 16.8066 234.282 16.8506 234.37 16.9033C234.458 16.9385 234.599 16.9561 234.792 16.9561C235.073 16.9561 235.267 16.9385 235.372 16.9033C235.495 16.8682 235.68 16.8506 235.926 16.8506C236.225 16.8506 236.471 16.9297 236.664 17.0879C236.857 17.2285 237.016 17.4131 237.139 17.6416C237.262 17.8525 237.35 18.0898 237.402 18.3535C237.473 18.5996 237.517 18.8281 237.534 19.0391C237.587 19.4785 237.473 19.9355 237.191 20.4102C236.91 20.8848 236.567 21.4033 236.163 21.9658C235.917 22.3174 235.671 22.7129 235.425 23.1523C235.179 23.5918 235.073 23.9873 235.108 24.3389C235.144 24.5674 235.205 24.752 235.293 24.8926C235.381 25.0332 235.627 25.1035 236.031 25.1035C236.33 25.1035 236.655 24.998 237.007 24.7871C237.376 24.5586 237.745 24.2773 238.114 23.9434C238.501 23.5918 238.879 23.2139 239.248 22.8096C239.617 22.3877 239.96 21.9834 240.276 21.5967C240.593 21.1924 240.856 20.832 241.067 20.5156C241.296 20.1992 241.463 19.9707 241.568 19.8301C241.656 19.6895 241.771 19.5928 241.911 19.54C242.052 19.4873 242.175 19.4873 242.28 19.54C242.386 19.5928 242.447 19.6982 242.465 19.8564C242.5 20.0146 242.438 20.2256 242.28 20.4893C242.175 20.665 241.99 20.9463 241.727 21.333C241.48 21.7197 241.173 22.1504 240.804 22.625C240.452 23.0996 240.057 23.5918 239.617 24.1016C239.178 24.5938 238.712 25.0508 238.22 25.4727C237.745 25.877 237.262 26.2109 236.77 26.4746C236.295 26.7383 235.838 26.8701 235.398 26.8701C234.941 26.8701 234.563 26.7822 234.265 26.6064C233.966 26.4307 233.72 26.2197 233.526 25.9736C233.351 25.71 233.219 25.4287 233.131 25.1299C233.061 24.8135 233.034 24.5234 233.052 24.2598C233.069 24.0488 233.122 23.8291 233.21 23.6006C233.315 23.3545 233.43 23.1084 233.553 22.8623C233.693 22.5986 233.834 22.3438 233.975 22.0977C234.133 21.834 234.273 21.5791 234.396 21.333C234.695 20.8232 234.933 20.3926 235.108 20.041C235.302 19.6719 235.398 19.3643 235.398 19.1182C235.398 18.96 235.363 18.8193 235.293 18.6963C235.223 18.5732 235.108 18.5117 234.95 18.5117C234.845 18.5117 234.766 18.5205 234.713 18.5381C234.678 18.5381 234.634 18.5381 234.581 18.5381C234.546 18.5381 234.484 18.5469 234.396 18.5645C234.326 18.5645 234.212 18.5645 234.054 18.5645C233.825 18.5645 233.632 18.5293 233.474 18.459C233.315 18.3887 233.166 18.3359 233.025 18.3008C232.955 18.4238 232.797 18.6875 232.551 19.0918C232.305 19.4961 232.015 19.9707 231.681 20.5156C231.364 21.0605 231.021 21.6318 230.652 22.2295C230.301 22.8271 229.967 23.3896 229.65 23.917C229.334 24.4268 229.07 24.8662 228.859 25.2354C228.631 25.5869 228.49 25.7979 228.438 25.8682Z" fill="#2B3A55"/>
<rect x="1.5" y="6.5" width="16.6889" height="16.6889" stroke="#2B3A55" stroke-width="3"/>
<path d="M27.8889 6.5H26.3889V8V22.3111V23.8111H27.8889H41.5778H43.0778V22.3111V8V6.5H41.5778H27.8889Z" fill="#2B3A55" stroke="#2B3A55" stroke-width="3"/>
<rect x="51.2778" y="6.5" width="16.6889" height="16.6889" stroke="#2B3A55" stroke-width="3"/>
<path d="M28.5111 15.5406L30.0312 13.991L33.5081 17.5354L31.9881 19.0849L28.5111 15.5406Z" fill="white"/>
<path d="M39.4355 9.8667L40.9556 11.4162L32.7094 19.8223L31.1893 18.2727L39.4355 9.8667Z" fill="white"/>
<rect x="4" y="30" width="12" height="3" rx="1.5" fill="#2B3A55"/>
<rect x="29" y="30" width="12" height="3" rx="1.5" fill="#2B3A55"/>
<rect x="53" y="30" width="12" height="3" rx="1.5" fill="#2B3A55"/>
</svg>
