<svg width="269" height="271" viewBox="0 0 269 271" fill="none" xmlns="http://www.w3.org/2000/svg">
<path d="M267.701 135.5C267.701 209.786 207.928 270 134.201 270C60.4747 270 0.701213 209.786 0.701213 135.5C0.701213 61.2142 60.4747 1 134.201 1C207.928 1 267.701 61.2142 267.701 135.5Z" fill="#2B3A55" stroke="#0D0D0D"/>
<circle cx="133.5" cy="172.5" r="9.5" fill="#D9D9D9"/>
<circle cx="204.5" cy="172.5" r="9.5" fill="#D9D9D9"/>
<ellipse cx="62" cy="172.5" rx="9" ry="9.5" fill="#D9D9D9"/>
<rect x="41.5" y="99.5" width="43" height="43" fill="#2B3A55" stroke="#F2E5E5" stroke-width="3"/>
<path d="M114 99.5H112.5V101V142V143.5H114H154H155.5V142V101V99.5H154H114Z" fill="#D9D9D9" stroke="#D9D9D9" stroke-width="3"/>
<rect x="183.5" y="99.5" width="43" height="43" fill="#2B3A55" stroke="#F2E5E5" stroke-width="3"/>
<rect x="115.991" y="124.015" width="6.2484" height="14.2924" transform="rotate(-45 115.991 124.015)" fill="#2B3A55"/>
<rect x="147.745" y="107.837" width="6.2484" height="33.8966" transform="rotate(45 147.745 107.837)" fill="#2B3A55"/>
</svg>
