<svg width="400" height="107" viewBox="0 0 400 107" fill="none" xmlns="http://www.w3.org/2000/svg">
<path d="M128.141 75.7188C126.672 75.7188 125.297 75.4844 124.016 75.0156C122.766 74.5469 121.656 73.8906 120.688 73.0469C119.75 72.2031 119 71.2031 118.438 70.0469C117.875 68.9219 117.578 67.6875 117.547 66.3438C117.516 64.5938 117.797 63.0312 118.391 61.6562C118.953 60.2812 119.703 59.0625 120.641 58C121.609 56.9375 122.703 56.0469 123.922 55.3281C125.141 54.5781 126.391 53.9688 127.672 53.5C126.984 53.125 126.328 52.6719 125.703 52.1406C125.109 51.6094 124.578 51.0156 124.109 50.3594C123.641 49.7031 123.266 49.0156 122.984 48.2969C122.703 47.5781 122.562 46.8594 122.562 46.1406C122.5 43.9531 122.938 41.9688 123.875 40.1875C124.844 38.4062 126.078 36.8906 127.578 35.6406C129.078 34.3594 130.75 33.375 132.594 32.6875C134.469 32 136.297 31.6562 138.078 31.6562C139.266 31.6562 140.281 31.8594 141.125 32.2656C141.969 32.6406 142.656 33.125 143.188 33.7188C143.719 34.2812 144.109 34.9062 144.359 35.5938C144.641 36.25 144.797 36.8594 144.828 37.4219C144.859 38.4531 144.719 39.5 144.406 40.5625C144.125 41.625 143.75 42.5938 143.281 43.4688C142.844 44.3125 142.344 45.0156 141.781 45.5781C141.219 46.1094 140.672 46.375 140.141 46.375C139.734 46.375 139.312 46.3125 138.875 46.1875C138.5 46.0938 138.062 45.9375 137.562 45.7188C137.062 45.5 136.562 45.1719 136.062 44.7344C136.875 44.4219 137.594 43.9844 138.219 43.4219C138.844 42.8281 139.359 42.1719 139.766 41.4531C140.203 40.7344 140.516 40 140.703 39.25C140.922 38.4688 141.031 37.7344 141.031 37.0469C141 36.0469 140.766 35.2812 140.328 34.75C139.891 34.1875 139.188 33.9062 138.219 33.9062C136.906 33.9062 135.594 34.2344 134.281 34.8906C132.969 35.5156 131.797 36.4062 130.766 37.5625C129.766 38.6875 128.969 40.0469 128.375 41.6406C127.812 43.2031 127.625 44.9062 127.812 46.75C127.969 48.1562 128.391 49.3438 129.078 50.3125C129.797 51.2812 130.469 52.0312 131.094 52.5625C131.594 52.5 132.062 52.4531 132.5 52.4219C132.938 52.3594 133.344 52.3281 133.719 52.3281C134.25 52.3281 134.781 52.4219 135.312 52.6094C135.844 52.7969 136.109 53.0625 136.109 53.4062C136.109 53.6562 136.047 53.9375 135.922 54.25C135.828 54.5625 135.656 54.8594 135.406 55.1406C135.156 55.4219 134.859 55.6562 134.516 55.8438C134.172 56.0312 133.766 56.125 133.297 56.125C132.922 56.125 132.469 56.0312 131.938 55.8438C131.406 55.6562 130.875 55.4219 130.344 55.1406C129.156 55.3906 128.078 55.8438 127.109 56.5C126.141 57.125 125.312 57.875 124.625 58.75C123.969 59.625 123.453 60.5781 123.078 61.6094C122.703 62.6406 122.531 63.6406 122.562 64.6094C122.594 65.5156 122.734 66.4219 122.984 67.3281C123.234 68.2656 123.625 69.0938 124.156 69.8125C124.688 70.5312 125.375 71.1094 126.219 71.5469C127.094 72.0156 128.141 72.25 129.359 72.25C130.266 72.25 131.125 72.0469 131.938 71.6406C132.781 71.2656 133.562 70.7812 134.281 70.1875C135 69.5938 135.656 68.9375 136.25 68.2188C136.844 67.5 137.359 66.7969 137.797 66.1094C138.234 65.4219 138.594 64.7969 138.875 64.2344C139.188 63.6719 139.406 63.2656 139.531 63.0156C139.625 62.8281 139.75 62.6875 139.906 62.5938C140.094 62.5 140.266 62.4844 140.422 62.5469C140.609 62.5781 140.75 62.6875 140.844 62.875C140.938 63.0625 140.938 63.3438 140.844 63.7188C140.594 64.8438 140.125 66.0938 139.438 67.4688C138.75 68.875 137.859 70.1875 136.766 71.4062C135.703 72.625 134.438 73.6406 132.969 74.4531C131.531 75.2969 129.922 75.7188 128.141 75.7188ZM143.422 66.25C144.797 60.4688 145.891 55.8281 146.703 52.3281C147.547 48.8281 148.188 46.1562 148.625 44.3125C149.125 42.125 149.469 40.6094 149.656 39.7656C149.75 39.1719 149.828 38.5938 149.891 38.0312C149.953 37.5312 149.984 37.0156 149.984 36.4844C149.984 35.9531 149.938 35.4688 149.844 35.0312C150.094 34.875 150.359 34.75 150.641 34.6562C150.953 34.5625 151.25 34.4844 151.531 34.4219C151.875 34.3281 152.219 34.25 152.562 34.1875C152.906 34.125 153.219 34.0938 153.5 34.0938C153.75 34.0938 153.984 34.125 154.203 34.1875C154.422 34.2188 154.562 34.3125 154.625 34.4688C154.812 34.625 154.891 34.9375 154.859 35.4062C154.859 35.875 154.828 36.3594 154.766 36.8594C154.641 37.4531 154.5 38.0938 154.344 38.7812C153.969 40.125 153.453 42.0625 152.797 44.5938C152.234 46.75 151.469 49.6875 150.5 53.4062C149.562 57.125 148.375 61.8125 146.938 67.4688C146.781 67.625 146.594 67.7344 146.375 67.7969C146.156 67.8594 145.953 67.8906 145.766 67.8906C145.547 67.8906 145.312 67.875 145.062 67.8438C144.844 67.7812 144.625 67.6875 144.406 67.5625C144.219 67.4375 144.031 67.2656 143.844 67.0469C143.656 66.8594 143.516 66.5938 143.422 66.25ZM175.859 57.25C174.922 58.625 173.859 59.9688 172.672 61.2812C171.484 62.5625 170.219 63.7188 168.875 64.75C167.562 65.75 166.203 66.5625 164.797 67.1875C163.422 67.8125 162.078 68.125 160.766 68.125C160.078 68.125 159.328 67.9531 158.516 67.6094C157.734 67.2969 157.016 66.7969 156.359 66.1094C155.703 65.4219 155.172 64.5312 154.766 63.4375C154.391 62.3438 154.281 61.0156 154.438 59.4531C154.562 58.1719 154.953 56.8281 155.609 55.4219C156.297 53.9844 157.125 52.6719 158.094 51.4844C159.094 50.2969 160.203 49.3125 161.422 48.5312C162.672 47.75 163.922 47.3594 165.172 47.3594C166.359 47.3594 167.219 47.6562 167.75 48.25C168.281 48.8438 168.516 49.5781 168.453 50.4531C168.359 51.4219 168.078 52.3125 167.609 53.125C167.172 53.9375 166.641 54.6719 166.016 55.3281C165.391 55.9844 164.719 56.5781 164 57.1094C163.312 57.6406 162.656 58.125 162.031 58.5625C161.344 59.0312 160.688 59.4844 160.062 59.9219C159.438 60.3281 158.891 60.7031 158.422 61.0469C158.453 61.8281 158.594 62.4844 158.844 63.0156C159.094 63.5469 159.406 63.9844 159.781 64.3281C160.156 64.6406 160.578 64.875 161.047 65.0312C161.547 65.1562 162.047 65.2188 162.547 65.2188C163.609 65.2188 164.719 64.8906 165.875 64.2344C167.031 63.5469 168.156 62.7344 169.25 61.7969C170.375 60.8281 171.406 59.8281 172.344 58.7969C173.312 57.7656 174.109 56.875 174.734 56.125C174.953 55.875 175.172 55.7344 175.391 55.7031C175.641 55.6406 175.828 55.6719 175.953 55.7969C176.109 55.8906 176.188 56.0781 176.188 56.3594C176.188 56.6094 176.078 56.9062 175.859 57.25ZM163.859 50.0312C163.484 50.0312 163.031 50.2188 162.5 50.5938C162 50.9688 161.5 51.5156 161 52.2344C160.5 52.9219 160.031 53.7812 159.594 54.8125C159.156 55.8125 158.828 56.9688 158.609 58.2812C158.984 58 159.391 57.7188 159.828 57.4375C160.266 57.125 160.703 56.7969 161.141 56.4531C162.484 55.4219 163.422 54.5156 163.953 53.7344C164.484 52.9531 164.781 52.2812 164.844 51.7188C164.906 51.125 164.844 50.7031 164.656 50.4531C164.469 50.1719 164.203 50.0312 163.859 50.0312ZM180.453 65.4062C181.422 65.4062 182.484 65.0312 183.641 64.2812C184.828 63.5 185.969 62.5938 187.062 61.5625C188.188 60.5312 189.203 59.4844 190.109 58.4219C191.047 57.3281 191.75 56.4531 192.219 55.7969C192.5 55.3906 192.766 55.1562 193.016 55.0938C193.266 55 193.453 55.0312 193.578 55.1875C193.703 55.3438 193.75 55.5938 193.719 55.9375C193.688 56.25 193.547 56.6094 193.297 57.0156C193.078 57.3906 192.703 57.9375 192.172 58.6562C191.672 59.3438 191.062 60.1094 190.344 60.9531C189.656 61.7656 188.859 62.6094 187.953 63.4844C187.078 64.3281 186.156 65.1094 185.188 65.8281C184.219 66.5156 183.219 67.0781 182.188 67.5156C181.156 67.9844 180.141 68.2188 179.141 68.2188C177.766 68.2188 176.609 67.9531 175.672 67.4219C174.766 66.9219 174.031 66.2656 173.469 65.4531C172.938 64.6406 172.562 63.75 172.344 62.7812C172.125 61.7812 172.016 60.7969 172.016 59.8281C172.016 58.8594 172.234 57.6562 172.672 56.2188C173.109 54.7812 173.75 53.4062 174.594 52.0938C175.469 50.75 176.562 49.6094 177.875 48.6719C179.188 47.7031 180.734 47.2188 182.516 47.2188C183.516 47.2188 184.359 47.5625 185.047 48.25C185.766 48.9375 186.109 49.875 186.078 51.0625C186.078 51.625 185.984 52.1875 185.797 52.75C185.609 53.2812 185.359 53.7656 185.047 54.2031C184.734 54.6094 184.359 54.9375 183.922 55.1875C183.516 55.4375 183.062 55.5625 182.562 55.5625C182.156 55.5625 181.844 55.4219 181.625 55.1406C181.438 54.8281 181.312 54.4844 181.25 54.1094C181.219 53.7031 181.219 53.3125 181.25 52.9375C181.312 52.5625 181.375 52.3125 181.438 52.1875C181.594 51.9688 181.766 51.8125 181.953 51.7188C182.141 51.625 182.359 51.5156 182.609 51.3906C182.797 51.2969 182.938 51.1562 183.031 50.9688C183.156 50.7812 183.219 50.5781 183.219 50.3594C183.219 50.1406 183.156 49.9531 183.031 49.7969C182.906 49.6406 182.703 49.5625 182.422 49.5625C182.141 49.5625 181.625 49.7969 180.875 50.2656C180.156 50.7031 179.406 51.375 178.625 52.2812C177.875 53.1562 177.203 54.2656 176.609 55.6094C176.016 56.9531 175.703 58.5156 175.672 60.2969C175.641 61.3281 175.781 62.1719 176.094 62.8281C176.406 63.4844 176.797 64 177.266 64.375C177.734 64.75 178.25 65.0156 178.812 65.1719C179.375 65.3281 179.922 65.4062 180.453 65.4062ZM207.219 55.1406C207.344 54.9531 207.5 54.8438 207.688 54.8125C207.906 54.75 208.078 54.7656 208.203 54.8594C208.328 54.9531 208.391 55.1094 208.391 55.3281C208.422 55.5469 208.344 55.8438 208.156 56.2188C207.531 57.4062 206.703 58.6875 205.672 60.0625C204.672 61.4375 203.609 62.7344 202.484 63.9531C201.359 65.1406 200.266 66.125 199.203 66.9062C198.141 67.6875 197.25 68.0781 196.531 68.0781C195.5 68.0781 194.641 67.875 193.953 67.4688C193.266 67.0625 192.719 66.5625 192.312 65.9688C191.938 65.375 191.672 64.7344 191.516 64.0469C191.359 63.3281 191.312 62.6719 191.375 62.0781C191.406 61.5781 191.516 60.6875 191.703 59.4062C191.891 58.0938 192.141 56.5938 192.453 54.9062C192.766 53.1875 193.109 51.3594 193.484 49.4219C193.891 47.4531 194.312 45.5625 194.75 43.75C194.219 43.8125 193.688 43.875 193.156 43.9375C192.625 44 192.141 44.0312 191.703 44.0312C190.703 44.0312 189.766 43.9219 188.891 43.7031C187.984 43.4531 187.312 43.2188 186.875 43C186.625 42.875 186.516 42.7031 186.547 42.4844C186.578 42.2344 186.672 42 186.828 41.7812C186.984 41.5312 187.188 41.3281 187.438 41.1719C187.656 40.9844 187.859 40.8906 188.047 40.8906C188.641 40.9531 189.281 41.0156 189.969 41.0781C190.656 41.1094 191.406 41.1094 192.219 41.0781C192.812 41.0469 193.375 41 193.906 40.9375C194.469 40.875 195.016 40.7969 195.547 40.7031C195.953 39.2031 196.344 37.9062 196.719 36.8125C197.125 35.6875 197.484 34.9062 197.797 34.4688C197.891 34.3125 198.094 34.1875 198.406 34.0938C198.75 33.9688 199.109 33.8906 199.484 33.8594C199.859 33.7969 200.219 33.7969 200.562 33.8594C200.906 33.8906 201.156 34 201.312 34.1875C201.469 34.4375 201.531 35.0781 201.5 36.1094C201.469 37.1406 201.297 38.4531 200.984 40.0469C202.297 40.0469 203.453 40.125 204.453 40.2812C205.484 40.4062 206.359 40.5625 207.078 40.75C207.797 40.9062 208.375 41.0781 208.812 41.2656C209.25 41.4219 209.578 41.5312 209.797 41.5938C210.016 41.6562 210.125 41.8125 210.125 42.0625C210.156 42.3125 210.109 42.5781 209.984 42.8594C209.891 43.1094 209.719 43.3281 209.469 43.5156C209.219 43.7031 208.938 43.7656 208.625 43.7031C208.312 43.6719 207.953 43.6094 207.547 43.5156C207.172 43.4219 206.703 43.3438 206.141 43.2812C205.609 43.2188 204.969 43.1562 204.219 43.0938C203.469 43.0312 202.594 43 201.594 43C201.406 43 201.188 43.0156 200.938 43.0469C200.719 43.0469 200.484 43.0469 200.234 43.0469C200.109 43.5469 199.984 44.0469 199.859 44.5469C199.766 45.0156 199.625 45.5156 199.438 46.0469C199.031 47.2969 198.562 48.6562 198.031 50.125C197.562 51.4062 197 52.875 196.344 54.5312C195.688 56.1875 194.953 57.9531 194.141 59.8281C193.953 61.1719 193.969 62.2031 194.188 62.9219C194.438 63.6094 194.734 64.1094 195.078 64.4219C195.484 64.7656 195.984 64.9531 196.578 64.9844C197.047 65.0469 197.609 64.8906 198.266 64.5156C198.953 64.1094 199.656 63.5781 200.375 62.9219C201.094 62.2656 201.812 61.5469 202.531 60.7656C203.281 59.9844 203.969 59.2188 204.594 58.4688C205.219 57.7188 205.766 57.0469 206.234 56.4531C206.703 55.8281 207.031 55.3906 207.219 55.1406ZM214.719 39.3906C214.625 39.7344 214.438 40.0781 214.156 40.4219C213.906 40.7344 213.609 41 213.266 41.2188C212.953 41.4062 212.625 41.5312 212.281 41.5938C211.938 41.6562 211.656 41.5938 211.438 41.4062C210.781 40.9062 210.438 40.375 210.406 39.8125C210.375 39.2188 210.516 38.6719 210.828 38.1719C211.141 37.6406 211.531 37.2031 212 36.8594C212.469 36.4844 212.875 36.2656 213.219 36.2031C213.562 36.1406 213.844 36.2188 214.062 36.4375C214.312 36.625 214.5 36.8906 214.625 37.2344C214.75 37.5469 214.812 37.9062 214.812 38.3125C214.844 38.7188 214.812 39.0781 214.719 39.3906ZM208.25 49.375C208.406 49.1875 208.703 49.0312 209.141 48.9062C209.578 48.7812 210.031 48.6875 210.5 48.625C210.969 48.5312 211.391 48.4844 211.766 48.4844C212.172 48.4531 212.406 48.4531 212.469 48.4844C212.5 48.5156 212.422 48.8438 212.234 49.4688C212.047 50.0938 211.812 50.8281 211.531 51.6719C211.25 52.5156 210.953 53.3906 210.641 54.2969C210.328 55.1719 210.094 55.8906 209.938 56.4531C209.781 57.0156 209.594 57.6562 209.375 58.375C209.156 59.0625 208.953 59.75 208.766 60.4375C208.609 61.0938 208.5 61.7188 208.438 62.3125C208.375 62.9062 208.422 63.3594 208.578 63.6719C208.734 64.0469 208.906 64.3125 209.094 64.4688C209.281 64.5938 209.484 64.6562 209.703 64.6562C210.328 64.6562 211.109 64.3125 212.047 63.625C213.016 62.9375 213.984 62.125 214.953 61.1875C215.953 60.2188 216.875 59.25 217.719 58.2812C218.562 57.2812 219.188 56.4844 219.594 55.8906C219.844 55.5781 220.094 55.375 220.344 55.2812C220.625 55.1875 220.844 55.2031 221 55.3281C221.188 55.4531 221.281 55.6562 221.281 55.9375C221.312 56.2188 221.219 56.5469 221 56.9219C220.5 57.7969 219.766 58.8438 218.797 60.0625C217.828 61.25 216.797 62.4062 215.703 63.5312C214.609 64.625 213.531 65.5625 212.469 66.3438C211.438 67.125 210.594 67.5312 209.938 67.5625C209.406 67.5938 208.875 67.5 208.344 67.2812C207.844 67.0938 207.375 66.8281 206.938 66.4844C206.531 66.1094 206.188 65.6875 205.906 65.2188C205.625 64.7188 205.469 64.2031 205.438 63.6719C205.344 62.8906 205.344 61.8281 205.438 60.4844C205.531 59.1094 205.703 57.7188 205.953 56.3125C206.203 54.875 206.516 53.5156 206.891 52.2344C207.297 50.9531 207.75 50 208.25 49.375ZM231.312 58.6562C230.5 59.8438 229.656 61 228.781 62.125C227.938 63.25 227.109 64.2656 226.297 65.1719C225.516 66.0469 224.781 66.75 224.094 67.2812C223.438 67.8438 222.906 68.125 222.5 68.125C221.531 68.125 220.734 67.6719 220.109 66.7656C219.516 65.8281 219.047 64.6875 218.703 63.3438C218.391 61.9688 218.188 60.5156 218.094 58.9844C218.031 57.4219 218.047 56.0312 218.141 54.8125C218.266 53.5938 218.406 52.625 218.562 51.9062C218.719 51.1562 218.906 50.5781 219.125 50.1719C219.375 49.7656 219.656 49.4688 219.969 49.2812C220.312 49.0938 220.734 48.9375 221.234 48.8125C221.453 48.75 221.703 48.7031 221.984 48.6719C222.266 48.6406 222.516 48.6562 222.734 48.7188C222.984 48.75 223.172 48.8438 223.297 49C223.422 49.1562 223.438 49.3906 223.344 49.7031C223.281 49.9844 223.172 50.4062 223.016 50.9688C222.891 51.5 222.75 52.1094 222.594 52.7969C222.438 53.4844 222.281 54.2031 222.125 54.9531C222 55.7031 221.906 56.4219 221.844 57.1094C221.75 58.2969 221.75 59.3438 221.844 60.25C221.938 61.125 222.078 61.875 222.266 62.5C222.453 63.0938 222.656 63.5469 222.875 63.8594C223.094 64.1719 223.266 64.3281 223.391 64.3281C223.547 64.3281 223.828 64.125 224.234 63.7188C224.672 63.2812 225.156 62.7188 225.688 62.0312C226.25 61.3438 226.828 60.5469 227.422 59.6406C228.047 58.7344 228.625 57.7969 229.156 56.8281C228.969 56.3281 228.891 55.7344 228.922 55.0469C229.016 53.9844 229.25 53.0312 229.625 52.1875C230 51.3125 230.422 50.5781 230.891 49.9844C231.391 49.3906 231.891 48.9375 232.391 48.625C232.922 48.2812 233.391 48.1094 233.797 48.1094C234.609 48.1094 235.109 48.3281 235.297 48.7656C235.516 49.1719 235.594 49.5938 235.531 50.0312C235.469 50.6875 235.172 51.5938 234.641 52.75C234.141 53.875 233.484 55.1094 232.672 56.4531C232.828 56.5156 233 56.5781 233.188 56.6406C233.375 56.7031 233.594 56.7344 233.844 56.7344C234.906 56.7344 235.859 56.6094 236.703 56.3594C237.578 56.1094 238.328 55.8125 238.953 55.4688C239.609 55.125 240.156 54.7656 240.594 54.3906C241.062 53.9844 241.438 53.6562 241.719 53.4062C241.906 53.2188 242.094 53.125 242.281 53.125C242.469 53.125 242.625 53.1719 242.75 53.2656C242.875 53.3594 242.938 53.5 242.938 53.6875C242.938 53.875 242.844 54.0781 242.656 54.2969C241.531 55.6719 240.156 56.7812 238.531 57.625C236.938 58.4688 235.062 58.8906 232.906 58.8906C232.719 58.8906 232.484 58.875 232.203 58.8438C231.922 58.8125 231.625 58.75 231.312 58.6562ZM259.344 57.25C258.406 58.625 257.344 59.9688 256.156 61.2812C254.969 62.5625 253.703 63.7188 252.359 64.75C251.047 65.75 249.688 66.5625 248.281 67.1875C246.906 67.8125 245.562 68.125 244.25 68.125C243.562 68.125 242.812 67.9531 242 67.6094C241.219 67.2969 240.5 66.7969 239.844 66.1094C239.188 65.4219 238.656 64.5312 238.25 63.4375C237.875 62.3438 237.766 61.0156 237.922 59.4531C238.047 58.1719 238.438 56.8281 239.094 55.4219C239.781 53.9844 240.609 52.6719 241.578 51.4844C242.578 50.2969 243.688 49.3125 244.906 48.5312C246.156 47.75 247.406 47.3594 248.656 47.3594C249.844 47.3594 250.703 47.6562 251.234 48.25C251.766 48.8438 252 49.5781 251.938 50.4531C251.844 51.4219 251.562 52.3125 251.094 53.125C250.656 53.9375 250.125 54.6719 249.5 55.3281C248.875 55.9844 248.203 56.5781 247.484 57.1094C246.797 57.6406 246.141 58.125 245.516 58.5625C244.828 59.0312 244.172 59.4844 243.547 59.9219C242.922 60.3281 242.375 60.7031 241.906 61.0469C241.938 61.8281 242.078 62.4844 242.328 63.0156C242.578 63.5469 242.891 63.9844 243.266 64.3281C243.641 64.6406 244.062 64.875 244.531 65.0312C245.031 65.1562 245.531 65.2188 246.031 65.2188C247.094 65.2188 248.203 64.8906 249.359 64.2344C250.516 63.5469 251.641 62.7344 252.734 61.7969C253.859 60.8281 254.891 59.8281 255.828 58.7969C256.797 57.7656 257.594 56.875 258.219 56.125C258.438 55.875 258.656 55.7344 258.875 55.7031C259.125 55.6406 259.312 55.6719 259.438 55.7969C259.594 55.8906 259.672 56.0781 259.672 56.3594C259.672 56.6094 259.562 56.9062 259.344 57.25ZM247.344 50.0312C246.969 50.0312 246.516 50.2188 245.984 50.5938C245.484 50.9688 244.984 51.5156 244.484 52.2344C243.984 52.9219 243.516 53.7812 243.078 54.8125C242.641 55.8125 242.312 56.9688 242.094 58.2812C242.469 58 242.875 57.7188 243.312 57.4375C243.75 57.125 244.188 56.7969 244.625 56.4531C245.969 55.4219 246.906 54.5156 247.438 53.7344C247.969 52.9531 248.266 52.2812 248.328 51.7188C248.391 51.125 248.328 50.7031 248.141 50.4531C247.953 50.1719 247.688 50.0312 247.344 50.0312ZM273.172 45.4844C273.141 45.3906 273.234 45.1562 273.453 44.7812C273.672 44.375 273.906 43.8906 274.156 43.3281C274.438 42.7344 274.703 42.0781 274.953 41.3594C275.234 40.6094 275.422 39.8438 275.516 39.0625C275.641 38.2812 275.641 37.5 275.516 36.7188C275.391 35.9375 275.062 35.1875 274.531 34.4688C274.219 34.0938 273.75 33.8906 273.125 33.8594C272.531 33.7969 271.844 33.8906 271.062 34.1406C270.312 34.3594 269.516 34.7188 268.672 35.2188C267.859 35.6875 267.109 36.25 266.422 36.9062C265.734 37.5312 265.141 38.2344 264.641 39.0156C264.172 39.7969 263.906 40.5938 263.844 41.4062C263.781 42.0625 263.797 42.6719 263.891 43.2344C264.016 43.7969 264.172 44.3125 264.359 44.7812C264.547 45.25 264.75 45.6875 264.969 46.0938C265.188 46.5 265.391 46.8594 265.578 47.1719C265.828 47.6094 266.219 48.0938 266.75 48.625C267.281 49.1562 267.859 49.7656 268.484 50.4531C269.109 51.1094 269.734 51.8594 270.359 52.7031C270.984 53.5469 271.531 54.5 272 55.5625C272.469 56.625 272.797 57.8125 272.984 59.125C273.172 60.4375 273.156 61.8906 272.938 63.4844C272.594 65.7969 272.047 67.7188 271.297 69.25C270.547 70.8125 269.719 72.0625 268.812 73C267.938 73.9375 267.047 74.6094 266.141 75.0156C265.234 75.4531 264.484 75.7344 263.891 75.8594C263.422 75.9531 262.859 76.0312 262.203 76.0938C261.578 76.1875 260.906 76.1719 260.188 76.0469C259.5 75.9531 258.797 75.7344 258.078 75.3906C257.359 75.0781 256.719 74.5781 256.156 73.8906C255.5 73.1094 254.984 72.2656 254.609 71.3594C254.266 70.5781 254.016 69.6719 253.859 68.6406C253.672 67.6406 253.75 66.5938 254.094 65.5C254.344 65.2188 254.609 64.9688 254.891 64.75C255.172 64.5312 255.453 64.3438 255.734 64.1875C256.047 64 256.375 63.8281 256.719 63.6719C257.125 63.5469 257.531 63.4375 257.938 63.3438C258.281 63.2812 258.641 63.25 259.016 63.25C259.422 63.2188 259.797 63.2656 260.141 63.3906C259.672 63.9219 259.344 64.4219 259.156 64.8906C259.031 65.1406 258.938 65.3594 258.875 65.5469C258.75 66.1406 258.703 66.8438 258.734 67.6562C258.797 68.5 258.969 69.2969 259.25 70.0469C259.562 70.8281 260 71.4844 260.562 72.0156C261.125 72.5781 261.875 72.875 262.812 72.9062C265.094 72.9688 267.031 71.1875 268.625 67.5625C269.156 66.4375 269.422 65.2969 269.422 64.1406C269.453 62.9844 269.312 61.875 269 60.8125C268.719 59.75 268.328 58.7656 267.828 57.8594C267.359 56.9219 266.875 56.125 266.375 55.4688C265.875 54.8125 265.266 54.1094 264.547 53.3594C263.859 52.5781 263.172 51.7344 262.484 50.8281C261.797 49.9219 261.172 48.9375 260.609 47.875C260.078 46.8125 259.719 45.6562 259.531 44.4062C259.281 42.6562 259.438 41.0625 260 39.625C260.594 38.1562 261.375 36.875 262.344 35.7812C263.344 34.6875 264.422 33.7969 265.578 33.1094C266.766 32.4219 267.812 31.9844 268.719 31.7969C273.75 30.7969 277.047 31.6406 278.609 34.3281C279.266 35.3594 279.625 36.4531 279.688 37.6094C279.75 38.7656 279.672 39.8438 279.453 40.8438C279.266 41.8125 279.016 42.6406 278.703 43.3281C278.422 43.9844 278.234 44.3438 278.141 44.4062C277.953 44.5938 277.656 44.7969 277.25 45.0156C276.844 45.2344 276.188 45.4375 275.281 45.625C275.031 45.6875 274.781 45.7188 274.531 45.7188C274.312 45.7188 274.078 45.7031 273.828 45.6719C273.578 45.6406 273.359 45.5781 273.172 45.4844ZM299.984 57.25C299.047 58.625 297.984 59.9688 296.797 61.2812C295.609 62.5625 294.344 63.7188 293 64.75C291.688 65.75 290.328 66.5625 288.922 67.1875C287.547 67.8125 286.203 68.125 284.891 68.125C284.203 68.125 283.453 67.9531 282.641 67.6094C281.859 67.2969 281.141 66.7969 280.484 66.1094C279.828 65.4219 279.297 64.5312 278.891 63.4375C278.516 62.3438 278.406 61.0156 278.562 59.4531C278.688 58.1719 279.078 56.8281 279.734 55.4219C280.422 53.9844 281.25 52.6719 282.219 51.4844C283.219 50.2969 284.328 49.3125 285.547 48.5312C286.797 47.75 288.047 47.3594 289.297 47.3594C290.484 47.3594 291.344 47.6562 291.875 48.25C292.406 48.8438 292.641 49.5781 292.578 50.4531C292.484 51.4219 292.203 52.3125 291.734 53.125C291.297 53.9375 290.766 54.6719 290.141 55.3281C289.516 55.9844 288.844 56.5781 288.125 57.1094C287.438 57.6406 286.781 58.125 286.156 58.5625C285.469 59.0312 284.812 59.4844 284.188 59.9219C283.562 60.3281 283.016 60.7031 282.547 61.0469C282.578 61.8281 282.719 62.4844 282.969 63.0156C283.219 63.5469 283.531 63.9844 283.906 64.3281C284.281 64.6406 284.703 64.875 285.172 65.0312C285.672 65.1562 286.172 65.2188 286.672 65.2188C287.734 65.2188 288.844 64.8906 290 64.2344C291.156 63.5469 292.281 62.7344 293.375 61.7969C294.5 60.8281 295.531 59.8281 296.469 58.7969C297.438 57.7656 298.234 56.875 298.859 56.125C299.078 55.875 299.297 55.7344 299.516 55.7031C299.766 55.6406 299.953 55.6719 300.078 55.7969C300.234 55.8906 300.312 56.0781 300.312 56.3594C300.312 56.6094 300.203 56.9062 299.984 57.25ZM287.984 50.0312C287.609 50.0312 287.156 50.2188 286.625 50.5938C286.125 50.9688 285.625 51.5156 285.125 52.2344C284.625 52.9219 284.156 53.7812 283.719 54.8125C283.281 55.8125 282.953 56.9688 282.734 58.2812C283.109 58 283.516 57.7188 283.953 57.4375C284.391 57.125 284.828 56.7969 285.266 56.4531C286.609 55.4219 287.547 54.5156 288.078 53.7344C288.609 52.9531 288.906 52.2812 288.969 51.7188C289.031 51.125 288.969 50.7031 288.781 50.4531C288.594 50.1719 288.328 50.0312 287.984 50.0312ZM295.906 66.25C297.281 60.4688 298.375 55.8281 299.188 52.3281C300.031 48.8281 300.672 46.1562 301.109 44.3125C301.609 42.125 301.953 40.6094 302.141 39.7656C302.234 39.1719 302.312 38.5938 302.375 38.0312C302.438 37.5312 302.469 37.0156 302.469 36.4844C302.469 35.9531 302.422 35.4688 302.328 35.0312C302.578 34.875 302.844 34.75 303.125 34.6562C303.438 34.5625 303.734 34.4844 304.016 34.4219C304.359 34.3281 304.703 34.25 305.047 34.1875C305.391 34.125 305.703 34.0938 305.984 34.0938C306.234 34.0938 306.469 34.125 306.688 34.1875C306.906 34.2188 307.047 34.3125 307.109 34.4688C307.297 34.625 307.375 34.9375 307.344 35.4062C307.344 35.875 307.312 36.3594 307.25 36.8594C307.125 37.4531 306.984 38.0938 306.828 38.7812C306.453 40.125 305.938 42.0625 305.281 44.5938C304.719 46.75 303.953 49.6875 302.984 53.4062C302.047 57.125 300.859 61.8125 299.422 67.4688C299.266 67.625 299.078 67.7344 298.859 67.7969C298.641 67.8594 298.438 67.8906 298.25 67.8906C298.031 67.8906 297.797 67.875 297.547 67.8438C297.328 67.7812 297.109 67.6875 296.891 67.5625C296.703 67.4375 296.516 67.2656 296.328 67.0469C296.141 66.8594 296 66.5938 295.906 66.25ZM328.344 57.25C327.406 58.625 326.344 59.9688 325.156 61.2812C323.969 62.5625 322.703 63.7188 321.359 64.75C320.047 65.75 318.688 66.5625 317.281 67.1875C315.906 67.8125 314.562 68.125 313.25 68.125C312.562 68.125 311.812 67.9531 311 67.6094C310.219 67.2969 309.5 66.7969 308.844 66.1094C308.188 65.4219 307.656 64.5312 307.25 63.4375C306.875 62.3438 306.766 61.0156 306.922 59.4531C307.047 58.1719 307.438 56.8281 308.094 55.4219C308.781 53.9844 309.609 52.6719 310.578 51.4844C311.578 50.2969 312.688 49.3125 313.906 48.5312C315.156 47.75 316.406 47.3594 317.656 47.3594C318.844 47.3594 319.703 47.6562 320.234 48.25C320.766 48.8438 321 49.5781 320.938 50.4531C320.844 51.4219 320.562 52.3125 320.094 53.125C319.656 53.9375 319.125 54.6719 318.5 55.3281C317.875 55.9844 317.203 56.5781 316.484 57.1094C315.797 57.6406 315.141 58.125 314.516 58.5625C313.828 59.0312 313.172 59.4844 312.547 59.9219C311.922 60.3281 311.375 60.7031 310.906 61.0469C310.938 61.8281 311.078 62.4844 311.328 63.0156C311.578 63.5469 311.891 63.9844 312.266 64.3281C312.641 64.6406 313.062 64.875 313.531 65.0312C314.031 65.1562 314.531 65.2188 315.031 65.2188C316.094 65.2188 317.203 64.8906 318.359 64.2344C319.516 63.5469 320.641 62.7344 321.734 61.7969C322.859 60.8281 323.891 59.8281 324.828 58.7969C325.797 57.7656 326.594 56.875 327.219 56.125C327.438 55.875 327.656 55.7344 327.875 55.7031C328.125 55.6406 328.312 55.6719 328.438 55.7969C328.594 55.8906 328.672 56.0781 328.672 56.3594C328.672 56.6094 328.562 56.9062 328.344 57.25ZM316.344 50.0312C315.969 50.0312 315.516 50.2188 314.984 50.5938C314.484 50.9688 313.984 51.5156 313.484 52.2344C312.984 52.9219 312.516 53.7812 312.078 54.8125C311.641 55.8125 311.312 56.9688 311.094 58.2812C311.469 58 311.875 57.7188 312.312 57.4375C312.75 57.125 313.188 56.7969 313.625 56.4531C314.969 55.4219 315.906 54.5156 316.438 53.7344C316.969 52.9531 317.266 52.2812 317.328 51.7188C317.391 51.125 317.328 50.7031 317.141 50.4531C316.953 50.1719 316.688 50.0312 316.344 50.0312ZM332.938 65.4062C333.906 65.4062 334.969 65.0312 336.125 64.2812C337.312 63.5 338.453 62.5938 339.547 61.5625C340.672 60.5312 341.688 59.4844 342.594 58.4219C343.531 57.3281 344.234 56.4531 344.703 55.7969C344.984 55.3906 345.25 55.1562 345.5 55.0938C345.75 55 345.938 55.0312 346.062 55.1875C346.188 55.3438 346.234 55.5938 346.203 55.9375C346.172 56.25 346.031 56.6094 345.781 57.0156C345.562 57.3906 345.188 57.9375 344.656 58.6562C344.156 59.3438 343.547 60.1094 342.828 60.9531C342.141 61.7656 341.344 62.6094 340.438 63.4844C339.562 64.3281 338.641 65.1094 337.672 65.8281C336.703 66.5156 335.703 67.0781 334.672 67.5156C333.641 67.9844 332.625 68.2188 331.625 68.2188C330.25 68.2188 329.094 67.9531 328.156 67.4219C327.25 66.9219 326.516 66.2656 325.953 65.4531C325.422 64.6406 325.047 63.75 324.828 62.7812C324.609 61.7812 324.5 60.7969 324.5 59.8281C324.5 58.8594 324.719 57.6562 325.156 56.2188C325.594 54.7812 326.234 53.4062 327.078 52.0938C327.953 50.75 329.047 49.6094 330.359 48.6719C331.672 47.7031 333.219 47.2188 335 47.2188C336 47.2188 336.844 47.5625 337.531 48.25C338.25 48.9375 338.594 49.875 338.562 51.0625C338.562 51.625 338.469 52.1875 338.281 52.75C338.094 53.2812 337.844 53.7656 337.531 54.2031C337.219 54.6094 336.844 54.9375 336.406 55.1875C336 55.4375 335.547 55.5625 335.047 55.5625C334.641 55.5625 334.328 55.4219 334.109 55.1406C333.922 54.8281 333.797 54.4844 333.734 54.1094C333.703 53.7031 333.703 53.3125 333.734 52.9375C333.797 52.5625 333.859 52.3125 333.922 52.1875C334.078 51.9688 334.25 51.8125 334.438 51.7188C334.625 51.625 334.844 51.5156 335.094 51.3906C335.281 51.2969 335.422 51.1562 335.516 50.9688C335.641 50.7812 335.703 50.5781 335.703 50.3594C335.703 50.1406 335.641 49.9531 335.516 49.7969C335.391 49.6406 335.188 49.5625 334.906 49.5625C334.625 49.5625 334.109 49.7969 333.359 50.2656C332.641 50.7031 331.891 51.375 331.109 52.2812C330.359 53.1562 329.688 54.2656 329.094 55.6094C328.5 56.9531 328.188 58.5156 328.156 60.2969C328.125 61.3281 328.266 62.1719 328.578 62.8281C328.891 63.4844 329.281 64 329.75 64.375C330.219 64.75 330.734 65.0156 331.297 65.1719C331.859 65.3281 332.406 65.4062 332.938 65.4062ZM359.703 55.1406C359.828 54.9531 359.984 54.8438 360.172 54.8125C360.391 54.75 360.562 54.7656 360.688 54.8594C360.812 54.9531 360.875 55.1094 360.875 55.3281C360.906 55.5469 360.828 55.8438 360.641 56.2188C360.016 57.4062 359.188 58.6875 358.156 60.0625C357.156 61.4375 356.094 62.7344 354.969 63.9531C353.844 65.1406 352.75 66.125 351.688 66.9062C350.625 67.6875 349.734 68.0781 349.016 68.0781C347.984 68.0781 347.125 67.875 346.438 67.4688C345.75 67.0625 345.203 66.5625 344.797 65.9688C344.422 65.375 344.156 64.7344 344 64.0469C343.844 63.3281 343.797 62.6719 343.859 62.0781C343.891 61.5781 344 60.6875 344.188 59.4062C344.375 58.0938 344.625 56.5938 344.938 54.9062C345.25 53.1875 345.594 51.3594 345.969 49.4219C346.375 47.4531 346.797 45.5625 347.234 43.75C346.703 43.8125 346.172 43.875 345.641 43.9375C345.109 44 344.625 44.0312 344.188 44.0312C343.188 44.0312 342.25 43.9219 341.375 43.7031C340.469 43.4531 339.797 43.2188 339.359 43C339.109 42.875 339 42.7031 339.031 42.4844C339.062 42.2344 339.156 42 339.312 41.7812C339.469 41.5312 339.672 41.3281 339.922 41.1719C340.141 40.9844 340.344 40.8906 340.531 40.8906C341.125 40.9531 341.766 41.0156 342.453 41.0781C343.141 41.1094 343.891 41.1094 344.703 41.0781C345.297 41.0469 345.859 41 346.391 40.9375C346.953 40.875 347.5 40.7969 348.031 40.7031C348.438 39.2031 348.828 37.9062 349.203 36.8125C349.609 35.6875 349.969 34.9062 350.281 34.4688C350.375 34.3125 350.578 34.1875 350.891 34.0938C351.234 33.9688 351.594 33.8906 351.969 33.8594C352.344 33.7969 352.703 33.7969 353.047 33.8594C353.391 33.8906 353.641 34 353.797 34.1875C353.953 34.4375 354.016 35.0781 353.984 36.1094C353.953 37.1406 353.781 38.4531 353.469 40.0469C354.781 40.0469 355.938 40.125 356.938 40.2812C357.969 40.4062 358.844 40.5625 359.562 40.75C360.281 40.9062 360.859 41.0781 361.297 41.2656C361.734 41.4219 362.062 41.5312 362.281 41.5938C362.5 41.6562 362.609 41.8125 362.609 42.0625C362.641 42.3125 362.594 42.5781 362.469 42.8594C362.375 43.1094 362.203 43.3281 361.953 43.5156C361.703 43.7031 361.422 43.7656 361.109 43.7031C360.797 43.6719 360.438 43.6094 360.031 43.5156C359.656 43.4219 359.188 43.3438 358.625 43.2812C358.094 43.2188 357.453 43.1562 356.703 43.0938C355.953 43.0312 355.078 43 354.078 43C353.891 43 353.672 43.0156 353.422 43.0469C353.203 43.0469 352.969 43.0469 352.719 43.0469C352.594 43.5469 352.469 44.0469 352.344 44.5469C352.25 45.0156 352.109 45.5156 351.922 46.0469C351.516 47.2969 351.047 48.6562 350.516 50.125C350.047 51.4062 349.484 52.875 348.828 54.5312C348.172 56.1875 347.438 57.9531 346.625 59.8281C346.438 61.1719 346.453 62.2031 346.672 62.9219C346.922 63.6094 347.219 64.1094 347.562 64.4219C347.969 64.7656 348.469 64.9531 349.062 64.9844C349.531 65.0469 350.094 64.8906 350.75 64.5156C351.438 64.1094 352.141 63.5781 352.859 62.9219C353.578 62.2656 354.297 61.5469 355.016 60.7656C355.766 59.9844 356.453 59.2188 357.078 58.4688C357.703 57.7188 358.25 57.0469 358.719 56.4531C359.188 55.8281 359.516 55.3906 359.703 55.1406ZM370.766 59.5469C370.453 60.7344 370.031 61.8438 369.5 62.875C368.969 63.9062 368.328 64.7969 367.578 65.5469C366.859 66.2969 366.031 66.875 365.094 67.2812C364.188 67.7188 363.188 67.9375 362.094 67.9375C360.812 67.9375 359.797 67.6562 359.047 67.0938C358.328 66.5625 357.781 65.8906 357.406 65.0781C357.062 64.2656 356.859 63.375 356.797 62.4062C356.703 61.4375 356.656 60.5312 356.656 59.6875C356.656 59.0938 356.734 58.4375 356.891 57.7188C357.016 57 357.203 56.2656 357.453 55.5156C357.703 54.7656 358.016 54.0156 358.391 53.2656C358.797 52.5156 359.266 51.8281 359.797 51.2031C359.984 50.6719 360.266 50.2031 360.641 49.7969C361.047 49.3906 361.5 49.0625 362 48.8125C362.531 48.5312 363.094 48.3281 363.688 48.2031C364.281 48.0469 364.859 47.9688 365.422 47.9688C365.516 47.9688 365.594 47.9844 365.656 48.0156C365.75 48.0469 365.844 48.0781 365.938 48.1094C366.344 48.1406 366.844 48.2969 367.438 48.5781C368.062 48.8594 368.656 49.2812 369.219 49.8438C369.812 50.4062 370.312 51.125 370.719 52C371.125 52.8438 371.328 53.875 371.328 55.0938C371.328 55.3438 371.312 55.6562 371.281 56.0312C371.25 56.375 371.219 56.6719 371.188 56.9219C371.906 56.6406 372.656 56.2969 373.438 55.8906C374.219 55.4844 374.969 55.0625 375.688 54.625C376.438 54.1562 377.125 53.6875 377.75 53.2188C378.375 52.75 378.875 52.3281 379.25 51.9531C379.562 51.6719 379.828 51.5156 380.047 51.4844C380.266 51.4531 380.422 51.5156 380.516 51.6719C380.609 51.8281 380.625 52.0469 380.562 52.3281C380.5 52.6094 380.328 52.9219 380.047 53.2656C379.891 53.4531 379.484 53.8281 378.828 54.3906C378.203 54.9531 377.453 55.5625 376.578 56.2188C375.703 56.875 374.75 57.5156 373.719 58.1406C372.688 58.7656 371.703 59.2344 370.766 59.5469ZM362.844 52.4219C362.75 52.7031 362.703 53 362.703 53.3125C362.703 53.8125 362.734 54.3438 362.797 54.9062C362.859 55.4375 363.016 55.9219 363.266 56.3594C363.516 56.7969 363.906 57.1719 364.438 57.4844C365 57.7656 365.766 57.9062 366.734 57.9062C366.891 57.9062 367.047 57.9062 367.203 57.9062C367.359 57.875 367.516 57.8438 367.672 57.8125C367.766 57.4062 367.844 57.0469 367.906 56.7344C368 56.3906 368.047 56.0938 368.047 55.8438C368.109 55.25 368.109 54.6406 368.047 54.0156C367.984 53.3906 367.859 52.8281 367.672 52.3281C367.516 51.7969 367.297 51.375 367.016 51.0625C366.766 50.7188 366.453 50.5469 366.078 50.5469C365.484 50.5469 364.906 50.7188 364.344 51.0625C363.812 51.375 363.312 51.8281 362.844 52.4219ZM359.844 60.6719C359.844 61.2344 359.875 61.7969 359.938 62.3594C360 62.8906 360.125 63.375 360.312 63.8125C360.5 64.2188 360.75 64.5625 361.062 64.8438C361.375 65.0938 361.781 65.2188 362.281 65.2188C362.844 65.2188 363.359 65.0938 363.828 64.8438C364.297 64.5625 364.719 64.2188 365.094 63.8125C365.469 63.375 365.797 62.8906 366.078 62.3594C366.391 61.7969 366.656 61.2188 366.875 60.625C366.656 60.6562 366.438 60.6875 366.219 60.7188C366.031 60.7188 365.812 60.7188 365.562 60.7188C364.375 60.7188 363.344 60.375 362.469 59.6875C361.625 58.9688 360.969 58.0625 360.5 56.9688C360.312 57.625 360.156 58.2656 360.031 58.8906C359.906 59.5156 359.844 60.1094 359.844 60.6719ZM374 66.7656C373.781 67.1094 373.547 67.3281 373.297 67.4219C373.016 67.5469 372.781 67.5625 372.594 67.4688C372.375 67.4062 372.234 67.25 372.172 67C372.109 66.75 372.172 66.4375 372.359 66.0625C372.453 65.875 372.672 65.4531 373.016 64.7969C373.328 64.1406 373.719 63.3594 374.188 62.4531C374.625 61.5156 375.109 60.5156 375.641 59.4531C376.172 58.3594 376.672 57.3281 377.141 56.3594C377.641 55.3906 378.094 54.5312 378.5 53.7812C378.906 53 379.203 52.4375 379.391 52.0938C379.047 51.7812 378.812 51.5625 378.688 51.4375C378.562 51.2812 378.469 50.9688 378.406 50.5C378.344 50.0938 378.438 49.5625 378.688 48.9062C378.938 48.25 379.266 47.625 379.672 47.0312C380.078 46.4062 380.531 45.875 381.031 45.4375C381.531 45 382.016 44.7812 382.484 44.7812C383.359 44.7812 383.969 45.0625 384.312 45.625C384.688 46.1875 384.906 46.7656 384.969 47.3594C385.031 47.7656 385 48.2812 384.875 48.9062C384.75 49.5312 384.516 50.0938 384.172 50.5938C384.266 50.6562 384.391 50.7344 384.547 50.8281C384.703 50.8906 384.953 50.9219 385.297 50.9219C385.797 50.9219 386.141 50.8906 386.328 50.8281C386.547 50.7656 386.875 50.7344 387.312 50.7344C387.844 50.7344 388.281 50.875 388.625 51.1562C388.969 51.4062 389.25 51.7344 389.469 52.1406C389.688 52.5156 389.844 52.9375 389.938 53.4062C390.062 53.8438 390.141 54.25 390.172 54.625C390.266 55.4062 390.062 56.2188 389.562 57.0625C389.062 57.9062 388.453 58.8281 387.734 59.8281C387.297 60.4531 386.859 61.1562 386.422 61.9375C385.984 62.7188 385.797 63.4219 385.859 64.0469C385.922 64.4531 386.031 64.7812 386.188 65.0312C386.344 65.2812 386.781 65.4062 387.5 65.4062C388.031 65.4062 388.609 65.2188 389.234 64.8438C389.891 64.4375 390.547 63.9375 391.203 63.3438C391.891 62.7188 392.562 62.0469 393.219 61.3281C393.875 60.5781 394.484 59.8594 395.047 59.1719C395.609 58.4531 396.078 57.8125 396.453 57.25C396.859 56.6875 397.156 56.2812 397.344 56.0312C397.5 55.7812 397.703 55.6094 397.953 55.5156C398.203 55.4219 398.422 55.4219 398.609 55.5156C398.797 55.6094 398.906 55.7969 398.938 56.0781C399 56.3594 398.891 56.7344 398.609 57.2031C398.422 57.5156 398.094 58.0156 397.625 58.7031C397.188 59.3906 396.641 60.1562 395.984 61C395.359 61.8438 394.656 62.7188 393.875 63.625C393.094 64.5 392.266 65.3125 391.391 66.0625C390.547 66.7812 389.688 67.375 388.812 67.8438C387.969 68.3125 387.156 68.5469 386.375 68.5469C385.562 68.5469 384.891 68.3906 384.359 68.0781C383.828 67.7656 383.391 67.3906 383.047 66.9531C382.734 66.4844 382.5 65.9844 382.344 65.4531C382.219 64.8906 382.172 64.375 382.203 63.9062C382.234 63.5312 382.328 63.1406 382.484 62.7344C382.672 62.2969 382.875 61.8594 383.094 61.4219C383.344 60.9531 383.594 60.5 383.844 60.0625C384.125 59.5938 384.375 59.1406 384.594 58.7031C385.125 57.7969 385.547 57.0312 385.859 56.4062C386.203 55.75 386.375 55.2031 386.375 54.7656C386.375 54.4844 386.312 54.2344 386.188 54.0156C386.062 53.7969 385.859 53.6875 385.578 53.6875C385.391 53.6875 385.25 53.7031 385.156 53.7344C385.094 53.7344 385.016 53.7344 384.922 53.7344C384.859 53.7344 384.75 53.75 384.594 53.7812C384.469 53.7812 384.266 53.7812 383.984 53.7812C383.578 53.7812 383.234 53.7188 382.953 53.5938C382.672 53.4688 382.406 53.375 382.156 53.3125C382.031 53.5312 381.75 54 381.312 54.7188C380.875 55.4375 380.359 56.2812 379.766 57.25C379.203 58.2188 378.594 59.2344 377.938 60.2969C377.312 61.3594 376.719 62.3594 376.156 63.2969C375.594 64.2031 375.125 64.9844 374.75 65.6406C374.344 66.2656 374.094 66.6406 374 66.7656Z" fill="#2B3A55"/>
<path d="M105.5 53.3955C105.5 82.6124 81.9914 106.291 53 106.291C24.0085 106.291 0.499998 82.6124 0.499998 53.3955C0.499998 24.1786 24.0085 0.5 53 0.5C81.9914 0.5 105.5 24.1786 105.5 53.3955Z" fill="#2B3A55" stroke="#0D0D0D"/>
<circle cx="52.7227" cy="68.0298" r="3.75746" fill="#D9D9D9"/>
<circle cx="80.8047" cy="68.0298" r="3.75746" fill="#D9D9D9"/>
<ellipse cx="24.4428" cy="68.0298" rx="3.5597" ry="3.75746" fill="#D9D9D9"/>
<rect x="15.4279" y="38.25" width="18.8209" height="18.8209" fill="#2B3A55" stroke="#F2E5E5" stroke-width="3"/>
<path d="M45.01 38.25H43.51V39.75V55.9664V57.4664H45.01H60.8309H62.3309V55.9664V39.75V38.25H60.8309H45.01Z" fill="#D9D9D9" stroke="#D9D9D9" stroke-width="3"/>
<rect x="71.592" y="38.25" width="18.8209" height="18.8209" fill="#2B3A55" stroke="#F2E5E5" stroke-width="3"/>
<rect x="45.7976" y="48.8531" width="2.47138" height="5.65295" transform="rotate(-45 45.7976 48.8531)" fill="#2B3A55"/>
<rect x="58.3567" y="42.4542" width="2.47138" height="13.4069" transform="rotate(45 58.3567 42.4542)" fill="#2B3A55"/>
</svg>
